<?xml version="1.0" encoding="utf-8"?>
<svg version="1.1" id="Ebene_2" xmlns="http://www.w3.org/2000/svg" xmlns:xlink="http://www.w3.org/1999/xlink" x="0px" y="0px"
	 viewBox="0 0 170 176.4" style="enable-background:new 0 0 170 176.4;" xml:space="preserve">
<style type="text/css">
	.st0{fill:#285EB4;}
</style>
<path class="st0" d="M109.1,75.1c-2.6,0.5-5,1.1-7.4,1.9c3.6-9.4,9.9-17.8,18.8-23.9c15.1-10.4,33.9-11.4,49.5-4.5
	c-0.4-9.2-3.3-18.3-8.8-26.4C145.3-1,113.5-7,90.3,8.9S61,56.6,76.9,79.8c1.6,2.4,3.4,4.5,5.3,6.5c-9.8,1.9-20.3,1-30.2-3.2
	c-16.8-7.3-27.7-22.6-30.2-39.5C14.4,48.8,8.1,56.1,4.2,65.2C-7,91,4.9,121.1,30.7,132.3c25.9,11.2,55.9-0.6,67.1-26.5
	c1.1-2.6,2-5.2,2.7-7.9c7.6,7.2,13,16.8,15,27.9c3.2,18.1-3.5,35.6-16.2,47c8.5,3.4,18,4.5,27.7,2.8c27.7-5,46.2-31.5,41.2-59.2
	C163.4,88.6,136.9,70.2,109.1,75.1z"/>
</svg>
