<?xml version="1.0" encoding="utf-8"?>
<svg version="1.1" id="Ebene_2" xmlns="http://www.w3.org/2000/svg" xmlns:xlink="http://www.w3.org/1999/xlink" x="0px" y="0px"
	 viewBox="-154 273.4 313.6 295.6" style="enable-background:new -154 273.4 313.6 295.6;" xml:space="preserve">
<style type="text/css">
	.st0{fill:#285EB4;}
</style>
<path class="st0" d="M-136.6,290.7c-23.1,23.1-23.1,60.7,0,83.9l83.9-83.9C-76,267.6-113.5,267.6-136.6,290.7z"/>
<path class="st0" d="M142.3,290.7c-23.1-23.1-60.7-23.1-83.9,0l83.9,83.9C165.4,351.4,165.4,313.8,142.3,290.7z"/>
<path class="st0" d="M2.9,301.8c-73.7,0-133.6,59.9-133.6,133.6c0,73.7,59.9,133.6,133.6,133.6s133.6-59.9,133.6-133.6
	C136.5,361.7,76.6,301.8,2.9,301.8z M10,450.2H-4.2V322.6H10V450.2z"/>
</svg>
