<?xml version="1.0" encoding="utf-8"?>
<svg version="1.1" id="Ebene_2" xmlns="http://www.w3.org/2000/svg" xmlns:xlink="http://www.w3.org/1999/xlink" x="0px" y="0px"
	 viewBox="-154 273.4 313.6 295.6" style="enable-background:new -154 273.4 313.6 295.6;" xml:space="preserve">
<style type="text/css">
	.st0{fill:#285EB4;}
</style>
<g>
	<path class="st0" d="M-136.6,290.7c-23.1,23.1-23.1,60.7,0,83.9l83.9-83.9C-76,267.6-113.5,267.6-136.6,290.7z"/>
	<path class="st0" d="M142.3,290.7c-23.1-23.1-60.7-23.1-83.9,0l83.9,83.9C165.4,351.4,165.4,313.8,142.3,290.7z"/>
	<g>
		<path class="st0" d="M2.9,569c-73.7,0-133.6-59.9-133.6-133.6c0-73.7,59.9-133.6,133.6-133.6s133.6,59.9,133.6,133.6
			C136.5,509.1,76.6,569,2.9,569z M2.9,313.8c-67.1,0-121.6,54.5-121.6,121.6c0,67,54.5,121.6,121.6,121.6s121.6-54.5,121.6-121.6
			C124.5,368.3,70,313.8,2.9,313.8z"/>
	</g>
	<rect x="-4.2" y="322.6" class="st0" width="14.2" height="127.6"/>
</g>
</svg>
