<?xml version="1.0" encoding="utf-8"?>
<svg version="1.1" id="Ebene_2" xmlns="http://www.w3.org/2000/svg" xmlns:xlink="http://www.w3.org/1999/xlink" x="0px" y="0px"
	 viewBox="-217 279.2 160 282.7" style="enable-background:new -217 279.2 160 282.7;" xml:space="preserve">
<style type="text/css">
	.st0{fill:#285EB4;}
</style>
<g>
	<path class="st0" d="M-64.9,301.2v-12.7c0-5.1-3.4-9.3-7.5-9.3s-7.5,4.2-7.5,9.3v12.7H-209c-4.4,0-8,4.4-8,9.9v240.8
		c0,5.5,3.6,9.9,8,9.9h144c4.4,0,8-4.4,8-9.9V311.2C-57,305.7-60.5,301.3-64.9,301.2z M-84.5,541.9h-105c-4.1,0-7.5-3.4-7.5-7.5
		c0-4.1,3.4-7.5,7.5-7.5h105c4.1,0,7.5,3.4,7.5,7.5C-77,538.5-80.4,541.9-84.5,541.9z M-84.5,511.9h-105c-4.1,0-7.5-3.4-7.5-7.5
		s3.4-7.5,7.5-7.5h105c4.1,0,7.5,3.4,7.5,7.5S-80.4,511.9-84.5,511.9z M-84.5,481.9h-105c-4.1,0-7.5-3.4-7.5-7.5s3.4-7.5,7.5-7.5
		h105c4.1,0,7.5,3.4,7.5,7.5S-80.4,481.9-84.5,481.9z M-77,414.5c0,5.6-3.4,10.1-7.5,10.1h-105c-4.1,0-7.5-4.5-7.5-10.1V327
		c0-5.6,3.4-10.1,7.5-10.1h105c4.1,0,7.5,4.5,7.5,10.1V414.5z"/>
	<g>
		<circle class="st0" cx="-136.7" cy="348.9" r="19.2"/>
		<path class="st0" d="M-108.1,383.1L-108.1,383.1c-2.8,0-5.2-2.3-5.2-5.2v-11c0-2.8,2.3-5.2,5.2-5.2l0,0c2.8,0,5.2,2.3,5.2,5.2v11
			C-102.9,380.8-105.2,383.1-108.1,383.1z"/>
		<path class="st0" d="M-165.9,383.1L-165.9,383.1c-2.8,0-5.2-2.3-5.2-5.2v-11c0-2.8,2.3-5.2,5.2-5.2l0,0c2.8,0,5.2,2.3,5.2,5.2v11
			C-160.7,380.8-163.1,383.1-165.9,383.1z"/>
		<path class="st0" d="M-120.8,395.3h-31.7c-3.8,0-6.9-3.1-6.9-6.9l0,0c0-3.8,3.1-6.9,6.9-6.9h31.7c3.8,0,6.9,3.1,6.9,6.9l0,0
			C-113.9,392.2-117,395.3-120.8,395.3z"/>
		<path class="st0" d="M-149.8,411.7L-149.8,411.7c-2.8,0-5.2-2.3-5.2-5.2v-13.1c0-2.8,2.3-5.2,5.2-5.2l0,0c2.8,0,5.2,2.3,5.2,5.2
			v13.1C-144.6,409.4-147,411.7-149.8,411.7z"/>
		<path class="st0" d="M-122.6,411.7L-122.6,411.7c-2.8,0-5.2-2.3-5.2-5.2v-13.1c0-2.8,2.3-5.2,5.2-5.2l0,0c2.8,0,5.2,2.3,5.2,5.2
			v13.1C-117.4,409.4-119.8,411.7-122.6,411.7z"/>
	</g>
</g>
</svg>
