<?xml version="1.0" encoding="utf-8"?>
<svg version="1.1" id="Bulb" xmlns="http://www.w3.org/2000/svg" xmlns:xlink="http://www.w3.org/1999/xlink" x="0px" y="0px"
	 viewBox="-121 348.3 352.5 145.6" style="enable-background:new -121 348.3 352.5 145.6;" xml:space="preserve">
<style type="text/css">
	.st0{fill:#285EB4;}
</style>
<path class="st0 tub1" d="M216.1,349c-6.8-3.2-53,5.5-62,9.5c0,0-47,14-56.2,14l-42.7,1.7l-42.7-1.7c-9.2,0-56.2-14-56.2-14
	c-9-4-55.2-12.7-62-9.5c-5,0.2-23.1,5.5-11.7,16.8c12.7,12.6,22.8,7.1,22.8,12l24.6,53.5c9.4,18.3,21,33.2,37,39.5
	c-0.5,2.1-1.4,4.3-2.9,6.5c0,0-7.5,7.4-5.4,13.6s16.9,1,16.9,1s6.2-3.4,5-9.1c-0.4-2-0.7-5.4-0.4-9c1.3,0.1,2.7,0.2,4.1,0.2h70.5
	h0.7H126c0.4,0,0.8,0,1.1,0c0.3,3.5,0,6.8-0.4,8.8c-1.2,5.8,5,9.1,5,9.1s14.8,5.2,16.9-1c2.1-6.2-5.4-13.6-5.4-13.6
	c-1.3-1.9-2.2-3.7-2.7-5.5c17.4-5.6,29.8-21.2,39.7-40.5l24.8-53.6c0-4.9,10,0.6,22.8-12C239.2,354.5,221.2,349.2,216.1,349z
	 M135.3,426.2c0,3.1-2.5,5.7-5.7,5.7c-3.1,0-5.7-2.5-5.7-5.7c0-3.1,2.5-5.7,5.7-5.7C132.8,420.5,135.3,423,135.3,426.2z
	 M120.1,406.5c3.1,0,5.7,2.5,5.7,5.7c0,3.1-2.5,5.7-5.7,5.7c-3.1,0-5.7-2.5-5.7-5.7C114.4,409,117,406.5,120.1,406.5z M116.2,426.2
	c0,3.1-2.5,5.7-5.7,5.7s-5.7-2.5-5.7-5.7c0-3.1,2.5-5.7,5.7-5.7S116.2,423,116.2,426.2z M105.8,393c3.1,0,5.7,2.5,5.7,5.7
	c0,3.1-2.5,5.7-5.7,5.7c-3.1,0-5.7-2.5-5.7-5.7C100.1,395.5,102.6,393,105.8,393z M101.9,412.2c0,3.1-2.5,5.7-5.7,5.7
	c-3.1,0-5.7-2.5-5.7-5.7c0-3.1,2.5-5.7,5.7-5.7C99.3,406.5,101.9,409,101.9,412.2z M91.4,379.5c3.1,0,5.7,2.5,5.7,5.7
	c0,3.1-2.5,5.7-5.7,5.7s-5.7-2.5-5.7-5.7C85.8,382,88.3,379.5,91.4,379.5z M87.6,426.2c0,3.1-2.5,5.7-5.7,5.7s-5.7-2.5-5.7-5.7
	c0-3.1,2.5-5.7,5.7-5.7S87.6,423,87.6,426.2z M77.1,393c3.1,0,5.7,2.5,5.7,5.7c0,3.1-2.5,5.7-5.7,5.7c-3.1,0-5.7-2.5-5.7-5.7
	C71.5,395.5,74,393,77.1,393z M73.2,412.2c0,3.1-2.5,5.7-5.7,5.7c-3.1,0-5.7-2.5-5.7-5.7c0-3.1,2.5-5.7,5.7-5.7
	C70.7,406.5,73.2,409,73.2,412.2z M62.8,379.5c3.1,0,5.7,2.5,5.7,5.7c0,3.1-2.5,5.7-5.7,5.7s-5.7-2.5-5.7-5.7
	C57.1,382,59.7,379.5,62.8,379.5z M58.9,426.2c0,3.1-2.5,5.7-5.7,5.7s-5.7-2.5-5.7-5.7c0-3.1,2.5-5.7,5.7-5.7S58.9,423,58.9,426.2z
	 M48.5,393c3.1,0,5.7,2.5,5.7,5.7c0,3.1-2.5,5.7-5.7,5.7c-3.1,0-5.7-2.5-5.7-5.7C42.8,395.5,45.3,393,48.5,393z M44.6,412.2
	c0,3.1-2.5,5.7-5.7,5.7c-3.1,0-5.7-2.5-5.7-5.7c0-3.1,2.5-5.7,5.7-5.7C42.1,406.5,44.6,409,44.6,412.2z M34.2,379.5
	c3.1,0,5.7,2.5,5.7,5.7c0,3.1-2.5,5.7-5.7,5.7s-5.7-2.5-5.7-5.7C28.5,382,31,379.5,34.2,379.5z M30.3,426.2c0,3.1-2.5,5.7-5.7,5.7
	s-5.7-2.5-5.7-5.7c0-3.1,2.5-5.7,5.7-5.7S30.3,423,30.3,426.2z M19.8,393c3.1,0,5.7,2.5,5.7,5.7c0,3.1-2.5,5.7-5.7,5.7
	c-3.1,0-5.7-2.5-5.7-5.7C14.2,395.5,16.7,393,19.8,393z M16,412.2c0,3.1-2.5,5.7-5.7,5.7c-3.1,0-5.7-2.5-5.7-5.7
	c0-3.1,2.5-5.7,5.7-5.7C13.4,406.5,16,409,16,412.2z M5.5,379.5c3.1,0,5.7,2.5,5.7,5.7c0,3.1-2.5,5.7-5.7,5.7s-5.7-2.5-5.7-5.7
	C-0.2,382,2.4,379.5,5.5,379.5z M1.6,426.2c0,3.1-2.5,5.7-5.7,5.7s-5.7-2.5-5.7-5.7c0-3.1,2.5-5.7,5.7-5.7S1.6,423,1.6,426.2z
	 M-8.8,393c3.1,0,5.7,2.5,5.7,5.7c0,3.1-2.5,5.7-5.7,5.7c-3.1,0-5.7-2.5-5.7-5.7C-14.5,395.5-11.9,393-8.8,393z M-18.4,406.5
	c3.1,0,5.7,2.5,5.7,5.7c0,3.1-2.5,5.7-5.7,5.7c-3.1,0-5.7-2.5-5.7-5.7C-24,409-21.5,406.5-18.4,406.5z M-27.9,420.5
	c3.1,0,5.7,2.5,5.7,5.7c0,3.1-2.5,5.7-5.7,5.7c-3.1,0-5.7-2.5-5.7-5.7C-33.6,423-31,420.5-27.9,420.5z M-32.7,435
	c3.1,0,5.7,2.5,5.7,5.7c0,3.1-2.5,5.7-5.7,5.7c-3.1,0-5.7-2.5-5.7-5.7C-38.4,437.5-35.8,435-32.7,435z M-37.5,459.9
	c-3.1,0-5.7-2.5-5.7-5.7c0-3.1,2.5-5.7,5.7-5.7c3.1,0,5.7,2.5,5.7,5.7C-31.8,457.3-34.3,459.9-37.5,459.9z M-23.1,459.9
	c-3.1,0-5.7-2.5-5.7-5.7c0-3.1,2.5-5.7,5.7-5.7c3.1,0,5.7,2.5,5.7,5.7C-17.5,457.3-20,459.9-23.1,459.9z M-13.6,446.3
	c-3.1,0-5.7-2.5-5.7-5.7c0-3.1,2.5-5.7,5.7-5.7c3.1,0,5.7,2.5,5.7,5.7C-7.9,443.8-10.5,446.3-13.6,446.3z M0.7,459.9
	c-3.1,0-5.7-2.5-5.7-5.7c0-3.1,2.5-5.7,5.7-5.7c3.1,0,5.7,2.5,5.7,5.7C6.4,457.3,3.9,459.9,0.7,459.9z M15.1,446.3
	c-3.1,0-5.7-2.5-5.7-5.7c0-3.1,2.5-5.7,5.7-5.7s5.7,2.5,5.7,5.7C20.7,443.8,18.2,446.3,15.1,446.3z M29.4,459.9
	c-3.1,0-5.7-2.5-5.7-5.7c0-3.1,2.5-5.7,5.7-5.7c3.1,0,5.7,2.5,5.7,5.7C35,457.3,32.5,459.9,29.4,459.9z M43.7,446.3
	c-3.1,0-5.7-2.5-5.7-5.7c0-3.1,2.5-5.7,5.7-5.7s5.7,2.5,5.7,5.7C49.4,443.8,46.8,446.3,43.7,446.3z M58,459.9
	c-3.1,0-5.7-2.5-5.7-5.7c0-3.1,2.5-5.7,5.7-5.7c3.1,0,5.7,2.5,5.7,5.7C63.7,457.3,61.2,459.9,58,459.9z M72.3,446.3
	c-3.1,0-5.7-2.5-5.7-5.7c0-3.1,2.5-5.7,5.7-5.7s5.7,2.5,5.7,5.7C78,443.8,75.5,446.3,72.3,446.3z M86.7,459.9
	c-3.1,0-5.7-2.5-5.7-5.7c0-3.1,2.5-5.7,5.7-5.7c3.1,0,5.7,2.5,5.7,5.7C92.3,457.3,89.8,459.9,86.7,459.9z M101,446.3
	c-3.1,0-5.7-2.5-5.7-5.7c0-3.1,2.5-5.7,5.7-5.7s5.7,2.5,5.7,5.7C106.7,443.8,104.1,446.3,101,446.3z M115.3,459.9
	c-3.1,0-5.7-2.5-5.7-5.7c0-3.1,2.5-5.7,5.7-5.7c3.1,0,5.7,2.5,5.7,5.7C121,457.3,118.4,459.9,115.3,459.9z M124.9,446.3
	c-3.1,0-5.7-2.5-5.7-5.7c0-3.1,2.5-5.7,5.7-5.7c3.1,0,5.7,2.5,5.7,5.7C130.5,443.8,128,446.3,124.9,446.3z M134.4,459.9
	c-3.1,0-5.7-2.5-5.7-5.7c0-3.1,2.5-5.7,5.7-5.7c3.1,0,5.7,2.5,5.7,5.7C140.1,457.3,137.5,459.9,134.4,459.9z M139.2,446.3
	c-3.1,0-5.7-2.5-5.7-5.7c0-3.1,2.5-5.7,5.7-5.7c3.1,0,5.7,2.5,5.7,5.7C144.9,443.8,142.3,446.3,139.2,446.3z M150,458.9
	c-3.1,0-5.7-2.5-5.7-5.7c0-3.1,2.5-5.7,5.7-5.7c3.1,0,5.7,2.5,5.7,5.7C155.6,456.3,153.1,458.9,150,458.9z"/>
</svg>
