<?xml version="1.0" encoding="utf-8"?>
<svg version="1.1" id="Bulb" xmlns="http://www.w3.org/2000/svg" xmlns:xlink="http://www.w3.org/1999/xlink" x="0px" y="0px"
	 viewBox="-121 348.3 352.5 145.6" style="enable-background:new -121 348.3 352.5 145.6;" xml:space="preserve">
<style type="text/css">
	.st0{fill:#285EB4;}
</style>
<path class="st0 tub1" d="M216.1,349c-6.8-3.2-53,5.5-62,9.5c0,0-47,14-56.2,14l-42.7,1.7l-42.7-1.7c-9.2,0-56.2-14-56.2-14
	c-9-4-55.2-12.7-62-9.5c-5,0.2-23.1,5.5-11.7,16.8c12.7,12.6,22.8,7.1,22.8,12l24.6,53.5c9.4,18.3,21,33.2,37,39.5
	c-0.5,2.1-1.4,4.3-2.9,6.5c0,0-7.5,7.4-5.4,13.6s16.9,1,16.9,1s6.2-3.4,5-9.1c-0.4-2-0.7-5.4-0.4-9c1.3,0.1,2.7,0.2,4.1,0.2h70.5
	h0.7H126c0.4,0,0.8,0,1.1,0c0.3,3.5,0,6.8-0.4,8.8c-1.2,5.8,5,9.1,5,9.1s14.8,5.2,16.9-1c2.1-6.2-5.4-13.6-5.4-13.6
	c-1.3-1.9-2.2-3.7-2.7-5.5c17.4-5.6,29.8-21.2,39.7-40.5l24.8-53.6c0-4.9,10,0.6,22.8-12C239.2,354.5,221.2,349.2,216.1,349z"/>
</svg>
