<?xml version="1.0" encoding="utf-8"?>
<svg version="1.1" id="Ebene_2" xmlns="http://www.w3.org/2000/svg" xmlns:xlink="http://www.w3.org/1999/xlink" x="0px" y="0px"
	 viewBox="0 0 206.8 104.8" style="enable-background:new 0 0 206.8 104.8;" xml:space="preserve">
<style type="text/css">
	.st33{fill:#5285D6;}
	.st39{fill:#FFB119;}
</style>
<g>
	<path class="st33" d="M195.4,18.4H19.7c-6.2,0-11.3,5.1-11.3,11.3v45.4c0,6.2,5.1,11.3,11.3,11.3H25c0.4,2.6,2.7,4.7,5.4,4.7h45.7
		c2.7,0,5-2,5.4-4.7H131c0.4,2.6,2.7,4.7,5.4,4.7h45.7c2.7,0,5-2,5.4-4.7h7.9c6.2,0,11.3-5.1,11.3-11.3V29.7
		C206.8,23.5,201.7,18.4,195.4,18.4z M53.3,69.4c-9.4,0-17-7.6-17-17s7.6-17,17-17s17,7.6,17,17S62.7,69.4,53.3,69.4z M181.4,77.4
		h-45.4c-3.1,0-5.7-2.6-5.7-5.7s2.6-5.7,5.7-5.7h45.4c3.1,0,5.7,2.6,5.7,5.7S184.6,77.4,181.4,77.4z M181.4,57.5h-45.4
		c-3.1,0-5.7-2.6-5.7-5.7s2.6-5.7,5.7-5.7h45.4c3.1,0,5.7,2.6,5.7,5.7S184.6,57.5,181.4,57.5z M181.4,37.7h-45.4
		c-3.1,0-5.7-2.6-5.7-5.7s2.6-5.7,5.7-5.7h45.4c3.1,0,5.7,2.6,5.7,5.7S184.6,37.7,181.4,37.7z"/>
	<g>
		<path class="st39" d="M52.4,104.8c-1.1,0-2.2,0-3.2-0.1l3.7-52.3c1,0.1-1,0.1,0,0l2.9,52.3C54.7,104.8,53.6,104.8,52.4,104.8z
			 M42.7,103.9c-2.2-0.4-4.3-1-6.4-1.6l16.6-49.9c1,0.3-1-0.2,0,0L42.7,103.9z M62.3,103.9l-9.4-51.5c1-0.2-1,0.3,0,0l15.8,49.9
			C66.6,102.9,64.5,103.5,62.3,103.9z M30.2,99.8c-2-0.9-3.9-2-5.8-3.2l28.5-44.3c0.9,0.6-0.9-0.4,0,0L30.2,99.8z M74.8,99.8
			L52.9,52.4c0.9-0.4-0.9,0.6,0,0l27.7,44.3C78.7,97.8,76.8,98.9,74.8,99.8z M19.1,92.8c-1.7-1.4-3.3-2.9-4.8-4.5l38.7-36
			c0.7,0.8-0.8-0.7,0,0L19.1,92.8z M85.9,92.7l-33-40.4c0.8-0.7-0.7,0.8,0,0l37.8,35.9C89.2,89.8,87.6,91.4,85.9,92.7z M10.1,83.3
			c-1.3-1.8-2.5-3.6-3.5-5.5l46.4-25.4c0.5,0.9-0.6-0.8,0,0L10.1,83.3z M94.9,83.2l-42-30.8c0.6-0.8-0.5,0.9,0,0l45.5,25.3
			C97.4,79.5,96.2,81.4,94.9,83.2z M3.7,71.8c-0.8-2-1.5-4.1-2-6.3l51.3-13.1c0.3,1-0.4-1,0,0L3.7,71.8z M101.2,71.7L52.9,52.4
			c0.4-1-0.3,1,0,0l50.3,13C102.7,67.5,102,69.6,101.2,71.7z M0.4,59C0.1,56.9,0,54.6,0,52.5l52.9-0.1c0,1.1-0.1-1,0,0L0.4,59z
			 M104.5,58.9l-51.6-6.6c0.1-1,0,1.1,0,0l0,0l52-0.2l0,0.2C104.9,54.5,104.8,56.7,104.5,58.9z M52.9,52.4L0.4,45.9
			c0.3-2.2,0.7-4.4,1.2-6.5L52.9,52.4C52.7,53.4,53,51.3,52.9,52.4z M52.9,52.4C52.8,51.3,53.2,53.4,52.9,52.4l50.3-13.2
			c0.6,2.1,1,4.3,1.3,6.5L52.9,52.4z M52.9,52.4L3.6,33.2c0.8-2,1.7-4,2.8-6L52.9,52.4C52.4,53.3,53.3,51.4,52.9,52.4z M52.9,52.4
			C52.5,51.4,53.4,53.3,52.9,52.4l45.4-25.4c1.1,1.9,2,3.9,2.8,6L52.9,52.4z M52.9,52.4l-43-30.7c1.3-1.8,2.7-3.5,4.2-5.1L52.9,52.4
			C52.2,53.1,53.5,51.5,52.9,52.4z M52.9,52.4C52.3,51.5,53.6,53.1,52.9,52.4l37.6-36c1.5,1.6,2.9,3.3,4.2,5L52.9,52.4z M52.9,52.4
			L18.9,12c1.7-1.4,3.5-2.7,5.3-3.9L52.9,52.4C52,52.9,53.7,51.7,52.9,52.4z M52.9,52.4C52.1,51.7,53.8,52.9,52.9,52.4L80.4,8
			c1.8,1.2,3.6,2.5,5.3,3.9L52.9,52.4z M52.9,52.4L30,5c2-0.9,4-1.8,6.1-2.4L52.9,52.4C51.9,52.7,53.9,51.9,52.9,52.4z M52.9,52.4
			C52,51.9,53.9,52.7,52.9,52.4L68.5,2.4c2.1,0.7,4.2,1.5,6.1,2.4L52.9,52.4z M52.9,52.4L42.5,0.9C44.6,0.4,46.8,0.2,49,0L52.9,52.4
			C51.9,52.4,53.9,52.2,52.9,52.4z M52.9,52.4C51.9,52.2,54,52.4,52.9,52.4L55.6,0c2.2,0.1,4.4,0.4,6.5,0.8L52.9,52.4z"/>
	</g>
</g>
</svg>
