<?xml version="1.0" encoding="utf-8"?>
<svg version="1.1" id="Ebene_2" xmlns="http://www.w3.org/2000/svg" xmlns:xlink="http://www.w3.org/1999/xlink" x="0px" y="0px"
	 viewBox="0 0 206.8 104.8" style="enable-background:new 0 0 206.8 104.8;" xml:space="preserve">
<style type="text/css">
	.st0{fill:#285EB4;}
</style>
<path class="st0" d="M195.4,18.4H19.7c-6.2,0-11.3,5.1-11.3,11.3v45.4c0,6.2,5.1,11.3,11.3,11.3H25c0.4,2.6,2.7,4.7,5.4,4.7h45.7
	c2.7,0,5-2,5.4-4.7H131c0.4,2.6,2.7,4.7,5.4,4.7h45.7c2.7,0,5-2,5.4-4.7h7.9c6.2,0,11.3-5.1,11.3-11.3V29.7
	C206.8,23.5,201.7,18.4,195.4,18.4z M53.3,69.4c-9.4,0-17-7.6-17-17s7.6-17,17-17s17,7.6,17,17S62.7,69.4,53.3,69.4z M181.4,77.4
	h-45.4c-3.1,0-5.7-2.6-5.7-5.7s2.6-5.7,5.7-5.7h45.4c3.1,0,5.7,2.6,5.7,5.7S184.6,77.4,181.4,77.4z M181.4,57.5h-45.4
	c-3.1,0-5.7-2.6-5.7-5.7s2.6-5.7,5.7-5.7h45.4c3.1,0,5.7,2.6,5.7,5.7S184.6,57.5,181.4,57.5z M181.4,37.7h-45.4
	c-3.1,0-5.7-2.6-5.7-5.7s2.6-5.7,5.7-5.7h45.4c3.1,0,5.7,2.6,5.7,5.7S184.6,37.7,181.4,37.7z"/>
</svg>
