<?xml version="1.0" encoding="utf-8"?>
<svg version="1.1" id="Ebene_2" xmlns="http://www.w3.org/2000/svg" xmlns:xlink="http://www.w3.org/1999/xlink" x="0px" y="0px"
	 viewBox="0 0 192.1 228.8" style="enable-background:new 0 0 192.1 228.8;" xml:space="preserve">
<style type="text/css">
	.st0{fill:#285EB4;}
</style>
<g>
	<path class="st0" d="M152.5,96.2c0-32.1-25.4-60-56.7-58.6c-31.3-1.3-56.7,26.6-56.7,58.6c0,12.2,17,46.6,25.4,55.9
		c9.7,14.2,1.2,33.7,8.6,32.5l22.6,0.3v0l0.2,0l0.2,0v0l22.6-0.3c7.4,1.2-1.1-18.2,8.6-32.5C135.5,142.8,152.5,108.3,152.5,96.2z"/>
	<path class="st0" d="M102.2,220.3H89.4c-2.3,0-4.3,1.9-4.3,4.3v0c0,2.3,1.9,4.3,4.3,4.3h12.8c2.3,0,4.3-1.9,4.3-4.3v0
		C106.4,222.2,104.5,220.3,102.2,220.3z"/>
	<path class="st0" d="M112.8,206.1h-34c-2.3,0-4.3,1.9-4.3,4.3c0,2.3,1.9,4.3,4.3,4.3h34c2.3,0,4.3-1.9,4.3-4.3
		C117.1,208,115.2,206.1,112.8,206.1z"/>
	<path class="st0" d="M112.8,191.9h-34c-2.3,0-4.3,1.9-4.3,4.3s1.9,4.3,4.3,4.3h34c2.3,0,4.3-1.9,4.3-4.3S115.2,191.9,112.8,191.9z"
		/>
</g>
</svg>
