<?xml version="1.0" encoding="utf-8"?>
<svg version="1.1" id="Ebene_1" xmlns="http://www.w3.org/2000/svg" xmlns:xlink="http://www.w3.org/1999/xlink" x="0px" y="0px"
	 viewBox="-201 307.1 192.1 228.8" style="enable-background:new -201 307.1 192.1 228.8;" xml:space="preserve">
<style type="text/css">
	.st0{fill:#285EB4;}
</style>
<g id="Bulb">
</g>
<path class="st0" d="M-48.5,403.1c0-32.1-25.4-60-56.7-58.6c-31.3-1.4-56.7,26.5-56.7,58.6c0,12.2,17.1,46.7,25.4,55.9
	c9.7,14.3,1.2,33.7,8.6,32.5l22.5,0.4v0l0.2,0l0.2,0v0l22.5-0.4c7.4,1.2-1.1-18.2,8.6-32.5C-65.6,449.8-48.5,415.3-48.5,403.1z"/>
<path class="st0" d="M-98.8,535.9h-12.8c-2.3,0-4.3-1.9-4.3-4.3l0,0c0-2.3,1.9-4.3,4.3-4.3h12.8c2.3,0,4.3,1.9,4.3,4.3l0,0
	C-94.6,534-96.5,535.9-98.8,535.9z"/>
<path class="st0" d="M-88.2,521.7h-34c-2.3,0-4.3-1.9-4.3-4.3l0,0c0-2.3,1.9-4.3,4.3-4.3h34c2.3,0,4.3,1.9,4.3,4.3l0,0
	C-83.9,519.8-85.8,521.7-88.2,521.7z"/>
<path class="st0" d="M-88.2,507.5h-34c-2.3,0-4.3-1.9-4.3-4.3l0,0c0-2.3,1.9-4.3,4.3-4.3h34c2.3,0,4.3,1.9,4.3,4.3l0,0
	C-83.9,505.6-85.8,507.5-88.2,507.5z"/>
<polygon class="st0" points="-109.7,335.4 -115.4,307.1 -95.5,307.1 -101.2,335.4 "/>
<polygon class="st0" points="-71,343.7 -59.4,317.2 -43.1,328.6 -64,348.5 "/>
<polygon class="st0" points="-46.7,367.4 -23.5,350.1 -15,368 -43,375.1 "/>
<polygon class="st0" points="-37.2,396.9 -8.9,391.2 -8.9,411 -37.2,405.4 "/>
<polygon class="st0" points="-138.9,343.7 -150.5,317.2 -166.7,328.6 -145.8,348.5 "/>
<polygon class="st0" points="-163.2,367.4 -186.3,350.1 -194.9,368 -166.9,375.1 "/>
<polygon class="st0" points="-172.6,396.9 -201,391.2 -201,411 -172.6,405.4 "/>
</svg>
