<?xml version="1.0" encoding="utf-8"?>
<svg version="1.1" id="Bulb" xmlns="http://www.w3.org/2000/svg" xmlns:xlink="http://www.w3.org/1999/xlink" x="0px" y="0px"
	 viewBox="0 0 492.2 298" style="enable-background:new 0 0 492.2 298;" xml:space="preserve">
<style type="text/css">
	.st0{fill:#285EB4;}
</style>
<path class="st0" d="M482.7,131l-23.3,11.3c-4.2,2-9.4,0.3-11.4-4l-14.1-29.2c-2-4.2-0.3-9.4,4-11.4l23.3-11.3c4.2-2,9.4-0.3,11.4,4
	l14.1,29.2C488.7,123.8,486.9,128.9,482.7,131z"/>
<path class="st0" d="M438.5,59.5L365,94.3V20h98V0H242v20h101v84.6l-73.9,34.6l9.2,19.7l-13.8,6.5l30.4,65.1l13.8-6.5l9.2,19.7
	l169.5-79.7c4.1-1.9,5.9-6.8,4-11l-41.9-89.6C447.6,59.4,442.6,57.6,438.5,59.5z M354.5,178c-7.2,0-13-5.8-13-13s5.8-13,13-13
	s13,5.8,13,13S361.7,178,354.5,178z"/>
<path class="st0" d="M302.6,243.1l-19.4,9.2c-1.6,0.8-3.6,0.1-4.3-1.6l-39.6-84c-0.8-1.6-0.1-3.6,1.6-4.3l19.4-9.2
	c1.6-0.8,3.6-0.1,4.3,1.6l39.6,84C304.9,240.4,304.2,242.3,302.6,243.1z"/>
</svg>
