<?xml version="1.0" encoding="utf-8"?>
<svg version="1.1" id="Ebene_2" xmlns="http://www.w3.org/2000/svg" xmlns:xlink="http://www.w3.org/1999/xlink" x="0px" y="0px"
	 viewBox="-208.9 313.8 179.7 219.5" style="enable-background:new -208.9 313.8 179.7 219.5;" xml:space="preserve">
<style type="text/css">
	.st0coffee{fill:#285EB4;}
	.st1coffee{fill:#285EB4;}
	.st2coffee{fill:#285EB4;}
</style>
<g>
	<polygon class="st0coffee" points="-208.9,313.8 -44.4,313.8 -72.4,381.5 -180.3,381.5 	"/>
	<path class="st1coffee" d="M-178.8,387.2H-74l-7.7,19.4h24.8c1.6,0,3.1,0.8,3.9,2.1l23,45.8c1.7,2.6,0.8,6.8-1.9,8.2l-7.8,2.7
		c-2.8,1-5.9-0.4-7.1-3.1l-17.1-39.1c-0.6-1-1.7-1.5-2.8-1.5h-15l28.7,79.2h-144l28.2-94.2L-178.8,387.2z"/>
	<polygon class="st2coffee" points="-198.4,506.6 -208.8,533.3 -40.2,532.3 -51.6,506.6 	"/>
</g>
</svg>
