<?xml version="1.0" encoding="utf-8"?>
<svg version="1.1" id="Bulb" xmlns="http://www.w3.org/2000/svg" xmlns:xlink="http://www.w3.org/1999/xlink" x="0px" y="0px"
	 viewBox="0 0 409.7 409.7" style="enable-background:new 0 0 409.7 409.7;" xml:space="preserve">
<style type="text/css">
	.st0{fill:#285EB4;}
</style>
<path class="st0" d="M204.8,0C91.7,0,0,91.7,0,204.8s91.7,204.8,204.8,204.8S409.7,318,409.7,204.8S318,0,204.8,0z M308.7,71.5
	l0.4,39.6c0-0.1-0.1-0.1-0.1-0.2v3.3c3.7,5.3,5.8,11.7,5.8,18.6c0,18.1-14.7,32.7-32.7,32.7s-32.7-14.7-32.7-32.7
	c0-6.4,1.9-12.4,5.1-17.4V112c0.1-0.1,0.1-0.2,0.2-0.3L254.2,72L308.7,71.5z M204.8,226.3c-5.8,0-11.1-2.3-14.9-6h-48.5
	c-5.4,12.7-18,21.7-32.7,21.7c-8,0-15.3-2.6-21.3-7.1H45v-56.7h42.5c5.9-4.4,13.3-7.1,21.3-7.1c14.7,0,27.3,8.9,32.7,21.7H187
	c3.9-5.7,10.4-9.5,17.8-9.5c0.9,0,1.8,0.1,2.7,0.2l41-41.6c2.5,9.4,8.9,17.2,17.3,21.7l-39.5,40.1c0,0.4,0.1,0.7,0.1,1.1
	C226.3,216.7,216.7,226.3,204.8,226.3z M311.3,304.5v37.1h-56.7v-34c-5.1-6.2-8.2-14.1-8.2-22.7c0-19.6,15.9-35.4,35.4-35.4
	s35.4,15.9,35.4,35.4C317.2,292.2,315,298.9,311.3,304.5z"/>
</svg>
