<?xml version="1.0" encoding="utf-8"?>
<svg version="1.1" id="Ebene_2" xmlns="http://www.w3.org/2000/svg" xmlns:xlink="http://www.w3.org/1999/xlink" x="0px" y="0px"
	 viewBox="0 0 255.1 453.5" style="enable-background:new 0 0 255.1 453.5;" xml:space="preserve">
<style type="text/css">
	.st0{fill:#285EB4;}
</style>
<path class="st0" d="M0,0v453.5h255.1V0H0z M175.5,433H79.6c0,0,0.3-69.3,0.3-83.1l6,0c0,0,0,0,0,0h15.4c6.6,0,13.2,0,19.7,0
	c5.6,0,20.2,0,32.9,0v-15.4c0-7.8,0.2-15.5-0.1-23.2c-0.1-3.7-0.8-7.4-1.8-11c-2.2-8-6.5-14.4-14.6-17.7c-4.1-1.7-8.3-2.1-12.7-1.5
	c-8.4,1-15.1,4.5-19.1,12.3c-3.6,6.9-3.8,15-3.7,22.7c0.1,5.7,0.1,17.7,0.1,18.5H86.6c0-0.7,0-1,0-1.4c-0.2-10.6-0.4-20.7,0.4-31.7
	c0.4-5.4,2.3-10.5,5-15.1c2.9-5,6.6-9.6,11.4-13.1c8.6-6.4,18.3-8.9,29-7.7c9.2,1.1,17.1,4.9,23.5,11.4c8.8,8.9,12.5,20.1,13,32.4
	c0.2,6.1,0.3,12.2,0.4,18.3c0.1,2.3,0.2,4.8,0.3,7v15.4c3.6,0,5.9,0,5.9,0C175.5,375.4,175.5,433,175.5,433z M215.4,238.1
	c-9.4,0-17-7.6-17-17s7.6-17,17-17c9.4,0,17,7.6,17,17S224.8,238.1,215.4,238.1z"/>
</svg>
