<?xml version="1.0" encoding="utf-8"?>
<svg version="1.1" id="Ebene_2" xmlns="http://www.w3.org/2000/svg" xmlns:xlink="http://www.w3.org/1999/xlink" x="0px" y="0px"
	 viewBox="0 0 255.1 453.5" style="enable-background:new 0 0 255.1 453.5;" xml:space="preserve">
<style type="text/css">
	.st0{fill:#285EB4;}
</style>
<g>
	<path class="st0" d="M151.4,316c-2.2-7.9-6.5-14.4-14.5-17.7c-4.1-1.7-8.3-2.1-12.7-1.5c-8.4,1-15.1,4.5-19.1,12.2
		c-3.6,6.9-3.8,15-3.7,22.6c0.1,5.7,0.1,17.7,0.1,18.4c17.3,0,34.5,0,51.9,0c0-7.8,0.2-15.5-0.1-23.1
		C153,323.3,152.4,319.6,151.4,316z"/>
	<path class="st0" d="M0,0v453.5h255.1V0H0z M175.4,433H79.7c0,0,0.3-69.2,0.3-82.9l6,0c0-0.7,0-1,0-1.4
		c-0.2-10.6-0.4-20.7,0.4-31.6c0.4-5.4,2.3-10.5,5-15.1c2.9-5,6.6-9.6,11.4-13.1c8.6-6.4,18.3-8.9,29-7.7
		c9.2,1.1,17.1,4.9,23.5,11.4c8.8,8.9,12.5,20,12.9,32.3c0.2,6.1,0.3,12.2,0.4,18.2c0.1,2.3,0.2,4.7,0.3,7c0.4,0.1,6.5,0,6.5,0
		C175.4,375.5,175.4,433,175.4,433z M215.4,238.1c-9.4,0-17-7.6-17-17s7.6-17,17-17c9.4,0,17,7.6,17,17S224.8,238.1,215.4,238.1z"/>
</g>
</svg>
