<?xml version="1.0" encoding="utf-8"?>
<svg version="1.1" id="Bulb" xmlns="http://www.w3.org/2000/svg" xmlns:xlink="http://www.w3.org/1999/xlink" x="0px" y="0px"
	 viewBox="0 0 159.5 195.9" style="enable-background:new 0 0 159.5 195.9;" xml:space="preserve">
<style type="text/css">
	.st0{fill:#285EB4;}
</style>
<path class="st0" d="M25.3,195.9C57.6,96.7,143.6,149.4,159.5,0.7C42.8-8.9-45.5,87.1,25.3,195.9z M121.5,27.9c0.3,0,0.5,0,0.6-0.2
	l2.6,3c-0.9,0.8-1.9,1.2-3.1,1.2c-0.2,0-0.4,0-0.6,0c-3-0.4-6-3.4-7.7-5.4c-6,3.4-11.5,7.1-16.7,10.8c2.3,2.3,6.3,5.4,8.7,5.4
	c0,0,0,0,0.1,0c0.5,0,0.9-0.2,1.2-0.6l3,2.6c-1.1,1.2-2.5,1.9-4.2,1.9c0,0-0.1,0-0.1,0c-4.9,0-10.7-5.6-12-7
	c-7.8,5.9-14.7,12-20.7,18.2c3.2,2.2,8.9,5.6,12.3,5.1c0.9-0.1,1.5-0.5,1.9-1.2l3.4,2.2c-1.1,1.6-2.7,2.7-4.6,3
	c-0.5,0.1-0.9,0.1-1.4,0.1c-5.2,0-11.6-4.2-14.3-6.2c-7.2,7.8-13.2,15.6-18.2,23.2c0,0,0.1,0.1,0.1,0.1l-0.4,0.4c0,0,0,0.1-0.1,0.1
	c4,2.3,13.9,6.9,19.1,5.3c1.3-0.4,2.1-1.1,2.7-2.3l3.6,1.7c-1,2.2-2.7,3.7-5.1,4.4c-1.1,0.4-2.4,0.5-3.7,0.5
	c-7.3,0-16.3-4.9-18.7-6.2c-3.5,5.7-6.4,11.2-8.8,16.3c-3.5,7.4-6.2,14.4-8.2,20.9c5.1,2,17.4,5.7,23.2,3c1.5-0.7,2.4-1.8,2.9-3.3
	l3.8,1.2c-0.8,2.6-2.5,4.6-5,5.8c-2.1,1-4.6,1.3-7.2,1.3c-7.4,0-15.9-3-18.9-4.1c-5.6,19.1-5.9,32.5-5.9,32.6l-4-0.1
	c0-0.8,0.4-16.5,7.5-38.4l-0.3,0.3C27.5,122.8,12.5,108,13,96.9c0.1-3.1,1.4-5.6,3.7-7.5l2.6,3.1c-1.4,1.2-2.2,2.7-2.2,4.6
	c-0.3,7,8.2,17.5,12.7,22.3c1.9-5.4,4.2-11,6.9-16.9c2.7-5.7,6-11.8,9.9-18.1c-3.5-4-9.4-11.8-9.1-18.3c0.1-2.5,1.2-4.5,3.1-6
	l2.5,3.1c-1,0.8-1.5,1.8-1.6,3.1c-0.2,4.3,4,10.5,7.3,14.5c5.3-8,11.7-16.2,19.5-24.4c-1.7-2.3-7.2-10.7-6-16.6
	c0.4-2,1.5-3.5,3.2-4.5l2.1,3.4c-0.7,0.4-1.1,1-1.3,1.9c-0.7,3.6,2.8,9.8,4.9,12.9c4.5-4.5,9.3-8.9,14.7-13.2c-0.6-1.1-4.7-9-3-13.9
	c0.5-1.6,1.6-2.7,3.1-3.4l1.6,3.7c-0.5,0.2-0.7,0.5-0.9,1c-0.8,2.3,0.9,7.1,2.4,10.1c4.8-3.7,10-7.3,15.5-10.8
	c-0.7-2.2-2.1-7.3-0.5-10.4c0.6-1.2,1.7-2.1,3-2.4l1,3.9c-0.2,0.1-0.3,0.1-0.5,0.4c-0.6,1.3-0.2,4.1,0.5,6.4
	c9.8-5.9,20.7-11.3,33-16.1l1.5,3.7c-9.3,3.7-17.8,7.7-25.7,12C118.3,26.1,120.2,27.7,121.5,27.9z"/>
</svg>
