<?xml version="1.0" encoding="utf-8"?>
<svg version="1.1" id="Ebene_2" xmlns="http://www.w3.org/2000/svg" xmlns:xlink="http://www.w3.org/1999/xlink" x="0px" y="0px"
	 viewBox="0 0 479.7 294.3" style="enable-background:new 0 0 479.7 294.3;" xml:space="preserve">
<style type="text/css">
	.st0{fill:#285EB4;}
</style>
<path class="st0" d="M459.1,36.5V18.6H20.5v17.9h0.1v221.3v17.9h438.6v-17.9L459.1,36.5L459.1,36.5z M38.4,257.8V36.5h402.9v221.3
	H38.4z"/>
<path class="st0" d="M475.9,0h-3.8H7.6H3.8H0v294.3h3.8h3.8h464.4h7.6v-7.6V0H475.9z M7.6,286.7V7.6h464.4v279H7.6z"/>
<path class="st0" d="M384.9,149.7L238.5,80.9l-2.8,6l0,0l-20.1,42.8h-54.9v-3.5h-44.3v3.5h-5.6v104.6h149.4v-38.4l84.4,39.7l2.8-6
	l34.7-73.9l0,0L384.9,149.7z M159.7,156.5H118v-19.9h41.7V156.5z M209.7,218.7c-18.6,0-33.6-15.1-33.6-33.6s15.1-33.6,33.6-33.6
	c18.6,0,33.6,15.1,33.6,33.6S228.2,218.7,209.7,218.7z M341.4,226.8l-81.3-38.2v-58.9h-37.3l18.8-40l134.5,63.3L341.4,226.8z"/>
</svg>
