<?xml version="1.0" encoding="utf-8"?>
<svg version="1.1" id="Ebene_2" xmlns="http://www.w3.org/2000/svg" xmlns:xlink="http://www.w3.org/1999/xlink" x="0px" y="0px"
	 viewBox="-135.9 257.1 176.2 186.9" style="enable-background:new -135.9 257.1 176.2 186.9;" xml:space="preserve">
<style type="text/css">
	.st0{fill:#285EB4;}
</style>
<g>
	<path class="st0" d="M-0.8,343.5c3.1,0,5.7,2.6,5.7,5.7v89.1c0,3.1-2.6,5.7-5.7,5.7s-5.7-2.6-5.7-5.7v-89.1
		C-6.5,346.1-3.9,343.5-0.8,343.5z"/>
	<path class="st0" d="M-94.8,343.5c-3.1,0-5.7,2.6-5.7,5.7v89.1c0,3.1,2.6,5.7,5.7,5.7c3.1,0,5.7-2.6,5.7-5.7v-89.1
		C-89.1,346.1-91.7,343.5-94.8,343.5z"/>
	<path class="st0" d="M20.2,352.2l0.3,0c0-0.5,1-12.3-1.1-27.6c-2.8-20.8-9.7-37.2-20.4-48.8c-11.5-12.5-27.1-18.8-46.2-18.8
		c-19.1,0-34.7,6.3-46.1,18.8c-23.6,25.7-21.7,68.9-21.2,75.6c-12.5,6.7-21.4,23.1-21.4,42.4c0,25.2,15.2,45.6,34,45.6v-91.2
		c-0.3,0-0.5,0-0.7,0c-0.4-10.3-0.1-44.3,18.2-64.2c9.1-9.9,21.6-14.9,37.3-14.9c15.6,0,28.2,5,37.3,14.9
		C8.5,303.9,9,338.2,8.7,348.4c-0.8-0.1-1.6-0.1-2.4-0.1v91.2c18.8,0,34-20.4,34-45.6C40.3,375.3,32,359.4,20.2,352.2z"/>
</g>
</svg>
