<?xml version="1.0" encoding="utf-8"?>
<svg version="1.1" id="Ebene_2" xmlns="http://www.w3.org/2000/svg" xmlns:xlink="http://www.w3.org/1999/xlink" x="0px" y="0px"
	 viewBox="0 0 158.7 170.1" style="enable-background:new 0 0 158.7 170.1;" xml:space="preserve">
<style type="text/css">
	.st0{fill:#285EB4;}
</style>
<g>
	<path class="st0 heating1" d="M11.3,170.1L11.3,170.1C5.1,170.1,0,165,0,158.7V11.3C0,5.1,5.1,0,11.3,0h0c6.2,0,11.3,5.1,11.3,11.3v147.4
		C22.7,165,17.6,170.1,11.3,170.1z"/>
	<path class="st0 heating2" d="M39.7,170.1L39.7,170.1c-6.2,0-11.3-5.1-11.3-11.3V11.3C28.3,5.1,33.4,0,39.7,0h0C45.9,0,51,5.1,51,11.3v147.4
		C51,165,45.9,170.1,39.7,170.1z"/>
	<path class="st0 heating3" d="M68,170.1L68,170.1c-6.2,0-11.3-5.1-11.3-11.3V11.3C56.7,5.1,61.8,0,68,0h0c6.2,0,11.3,5.1,11.3,11.3v147.4
		C79.4,165,74.3,170.1,68,170.1z"/>
	<path class="st0 heating4" d="M96.4,170.1L96.4,170.1c-6.2,0-11.3-5.1-11.3-11.3V11.3C85,5.1,90.1,0,96.4,0h0c6.2,0,11.3,5.1,11.3,11.3
		v147.4C107.7,165,102.6,170.1,96.4,170.1z"/>
	<path class="st0 heating5" d="M124.7,170.1L124.7,170.1c-6.2,0-11.3-5.1-11.3-11.3V11.3c0-6.2,5.1-11.3,11.3-11.3h0
		c6.2,0,11.3,5.1,11.3,11.3v147.4C136.1,165,131,170.1,124.7,170.1z"/>
	<circle class="st0" cx="150.2" cy="8.5" r="8.5"/>
</g>
</svg>
