<?xml version="1.0" encoding="utf-8"?>
<svg version="1.1" id="Ebene_2" xmlns="http://www.w3.org/2000/svg" xmlns:xlink="http://www.w3.org/1999/xlink" x="0px" y="0px"
	 viewBox="0 0 141.7 141.7" style="enable-background:new 0 0 141.7 141.7;" xml:space="preserve">
<style type="text/css">
	.st0{fill:#285EB4;}
</style>
<path class="st0" d="M70.9,0C31.7,0,0,31.7,0,70.9s31.7,70.9,70.9,70.9s70.9-31.7,70.9-70.9S110,0,70.9,0z M76.5,121.8H65.3V54.5
	h11.2V121.8z M76.8,34c-1.5,1.5-3.5,2.3-5.9,2.3c-2.4,0-4.4-0.8-5.9-2.3c-1.5-1.5-2.3-3.5-2.3-5.9c0-2.2,0.8-4.1,2.4-5.8
	c1.6-1.6,3.5-2.4,5.8-2.4c2.3,0,4.2,0.8,5.8,2.4c1.6,1.6,2.4,3.6,2.4,5.8C79.1,30.5,78.3,32.5,76.8,34z"/>
</svg>
