<?xml version="1.0" encoding="utf-8"?>
<svg version="1.1" id="Ebene_2" xmlns="http://www.w3.org/2000/svg" xmlns:xlink="http://www.w3.org/1999/xlink" x="0px" y="0px"
	 viewBox="0 0 203.4 117.2" style="enable-background:new 0 0 203.4 117.2;" xml:space="preserve">
<style type="text/css">
	.st0{fill:#285EB4;}
</style>
<g>
	<circle class="st0" cx="16.7" cy="100.5" r="16.7"/>
	<circle class="st0" cx="156.3" cy="100.5" r="16.7"/>
	<path class="st0" d="M200.7,0l-24.6,0.9c-1.4-0.2-2.8-0.5-3.4,0.7l-36.9,78.3h-9.6l-16.6-16.6h-23h-23L47.2,79.9H16.3
		c0,0,21.5,2.1,20.8,22.1h98.1c0,0,0-22.1,23.5-22.1h-16.2l33.5-71.9c0.7-1.6,2.3-2.6,4.1-2.6h20.1c1.8,0,3.2-1.5,3.2-3.2
		C203.4,0.6,202.3,0.3,200.7,0z"/>
</g>
</svg>
