<?xml version="1.0" encoding="utf-8"?>
<svg version="1.1" id="Ebene_2" xmlns="http://www.w3.org/2000/svg" xmlns:xlink="http://www.w3.org/1999/xlink" x="0px" y="0px"
	 viewBox="-195 362.7 203.4 117.2" style="enable-background:new -195 362.7 203.4 117.2;" xml:space="preserve">
<style type="text/css">
	.st0{fill:#285EB4;}
</style>
<g>
	<circle class="st0" cx="-373.3" cy="825.9" r="16.7"/>
	<circle class="st0" cx="-233.7" cy="825.9" r="16.7"/>
	<path class="st0" d="M-189.3,725.4l-24.6,0.9c-1.4-0.2-2.8-0.5-3.4,0.7l-36.9,78.3h-9.6l-16.6-16.6h-23h-23l-16.4,16.6h-30.9
		c0,0,21.5,2.1,20.8,22.1h47.9v3.9h-20.5v0.6l-2.7,1.6l2.7,1.5v0.6h20.5h2.2h2.1h20.5V835l2.7-1.5l-2.7-1.6v-0.6h-20.5v-3.9h45.9
		c0,0,0-22.1,23.5-22.1h-16.2l33.5-71.9c0.7-1.6,2.3-2.6,4.1-2.6h20.1c1.8,0,3.2-1.5,3.2-3.2C-186.6,726-187.7,725.7-189.3,725.4z"
		/>
</g>
</svg>
