<?xml version="1.0" encoding="utf-8"?>
<svg version="1.1" id="Ebene_2" xmlns="http://www.w3.org/2000/svg" xmlns:xlink="http://www.w3.org/1999/xlink" x="0px" y="0px"
	 viewBox="0 0 251.8 440.3" style="enable-background:new 0 0 251.8 440.3;" xml:space="preserve">
<style type="text/css">
	.st0{fill:#285EB4;}
</style>
<path class="st0" d="M251.8,222.3c0,0-5.9,0-15.4,0c-0.3-5.7-0.6-11.8-0.7-17.7c-0.4-16-0.5-32-1.1-47.9c-1.2-32.4-10.9-61.6-34-85
	c-16.9-17.1-37.6-27-61.7-29.9c-28.1-3.3-53.5,3.3-76.2,20.1c-12.5,9.3-22.2,21.3-29.9,34.4c-7,12-12.1,25.5-13.1,39.7
	c-2.1,28.8-1.6,55.5-1.1,83.2c0,0.8,0,1.7,0,3h-1.8c0,0,0,0,0,0l-15.8,0c0,36.2-0.9,218-0.9,218h251.8
	C251.8,440.3,251.8,289.1,251.8,222.3z M138.9,327v64.3h-26.1V327c-7.8-4.5-13-12.9-13-22.6c0-14.4,11.7-26.1,26.1-26.1
	c14.4,0,26.1,11.7,26.1,26.1C152,314.1,146.7,322.5,138.9,327z M195.2,222.3c-33.3,0-71.7,0-86.4,0c-16.6,0-33.3,0-50,0
	c-0.1-5.1-0.1-33.7-0.2-47.8c-0.2-20,0.4-41.3,9.8-59.5C79,94.7,96.5,85.5,118.7,82.8c11.7-1.4,22.7-0.3,33.4,4.1
	c21.1,8.6,32.3,25.6,38.2,46.5c2.6,9.3,4.3,19.1,4.6,28.7C195.7,182,195.2,201.9,195.2,222.3z"/>
</svg>
