<?xml version="1.0" encoding="utf-8"?>
<svg version="1.1" id="Ebene_1" xmlns="http://www.w3.org/2000/svg" xmlns:xlink="http://www.w3.org/1999/xlink" x="0px" y="0px"
	 viewBox="229.6 228.9 166.8 172.5" style="enable-background:new 229.6 228.9 166.8 172.5;" xml:space="preserve">
<style type="text/css">
	.st0{fill:#FFFFFF;}
</style>
<g id="Bulb">
</g>
<g>
	<path class="st0" d="M270.7,300.9c-3.1,0-5.7,2.6-5.7,5.7v89.1c0,3.1,2.6,5.7,5.7,5.7s5.7-2.6,5.7-5.7v-89.1
		C276.4,303.5,273.8,300.9,270.7,300.9z"/>
	<path class="st0" d="M355.3,300.9c3.1,0,5.7,2.6,5.7,5.7v89.1c0,3.1-2.6,5.7-5.7,5.7s-5.7-2.6-5.7-5.7v-89.1
		C349.6,303.5,352.2,300.9,355.3,300.9z"/>
	<path class="st0" d="M374.9,308.8c-0.3-22.4-6.3-79.9-61.9-79.9c-55.4,0-61.4,57.2-61.5,79.7c-12.8,6.6-21.9,23.1-21.9,42.6
		c0,25.2,15.2,45.6,34,45.6v-91.2c-0.3,0-0.5,0-0.8,0c1.3-24,9.2-67.7,50.3-67.7c41.1,0,49.2,43.8,50.5,67.7c-0.4,0-0.8,0-1.2,0
		v91.2c18.8,0,34-20.4,34-45.6C396.4,331.9,387.5,315.5,374.9,308.8z"/>
</g>
</svg>
