<?xml version="1.0" encoding="utf-8"?>
<svg version="1.1" id="Ebene_1" xmlns="http://www.w3.org/2000/svg" xmlns:xlink="http://www.w3.org/1999/xlink" x="0px" y="0px"
	 viewBox="152.3 275.4 291.7 292" style="enable-background:new 152.3 275.4 291.7 292;" xml:space="preserve">
<style type="text/css">
	.st0{fill:#FFFFFF;}
</style>
<g id="Bulb">
</g>
<g id="Ebene_2">
	<path class="st0" d="M444,436.9v-31l-37.5-6.5c-3-14.1-8.7-27.2-16.5-38.8l22.2-31.5l-21.9-21.9l-31.7,22.4
		c-11.5-7.5-24.4-12.9-38.3-15.7l-6.6-38.5h-31l-6.6,38.5c-13.9,2.8-26.9,8.2-38.3,15.7L206,307.3l-21.9,21.9l22.2,31.5
		c-7.8,11.6-13.5,24.7-16.5,38.8l-37.5,6.5v31l37.1,6.4c2.7,14.5,8.3,28,16.2,40l-21.5,30.4l21.9,21.9l30.1-21.3
		c12,8.1,25.7,14,40.4,16.9l6.2,36.1h31l6.2-36.1c14.7-2.9,28.4-8.8,40.4-16.9l30.1,21.3l21.9-21.9l-21.5-30.4
		c7.8-11.9,13.4-25.4,16.2-40L444,436.9z M298.2,499.7c-43.2,0-78.3-35-78.3-78.3s35-78.3,78.3-78.3s78.3,35,78.3,78.3
		S341.4,499.7,298.2,499.7z"/>
</g>
</svg>
