<?xml version="1.0" encoding="utf-8"?>
<svg version="1.1" id="Ebene_1" xmlns="http://www.w3.org/2000/svg" xmlns:xlink="http://www.w3.org/1999/xlink" x="0px" y="0px"
	 viewBox="256.2 211.5 168.6 126" style="enable-background:new 256.2 211.5 168.6 126;" xml:space="preserve">
<style type="text/css">
	.st0{fill:#FFFFFF;}
</style>
<g id="Bulb">
</g>
<g id="Ebene_2">
	<path class="st0" d="M413.5,249.2h-80.1c7-8.3,13.2-18.6,11.4-27.1c-2.1-7.8-7.6-10.7-12.9-10.6c-4.2,0.1-8,3.3-7.7,7.6
		c3,13.6-2.1,12.5-12.8,25.3c-1.4,1.7-2.9,3.3-4.5,4.7c-1.7,0-3.3,0.4-4.7,1.1v-4h-46v91.3h46v-2.7h33.3c6.2,0,11.3-5.1,11.3-11.3
		c0-4.2-2.3-7.8-5.7-9.8c5.5-0.8,9.7-5.5,9.7-11.2c0-4.9-3.2-9.1-7.5-10.7h0.2c6.2,0,11.3-5.1,11.3-11.3c0-3.5-1.6-6.6-4-8.7h62.7
		c6.2,0,11.3-5.1,11.3-11.3C424.8,254.3,419.7,249.2,413.5,249.2z"/>
</g>
</svg>
