<?xml version="1.0" encoding="utf-8"?>
<svg version="1.1" id="Ebene_1" xmlns="http://www.w3.org/2000/svg" xmlns:xlink="http://www.w3.org/1999/xlink" x="0px" y="0px"
	 viewBox="226.8 251.3 144.5 170.1" style="enable-background:new 226.8 251.3 144.5 170.1;" xml:space="preserve">
<style type="text/css">
	.st0{fill:#FFFFFF;}
</style>
<g id="Bulb">
</g>
<g id="Ebene_2">
	<path class="st0" d="M255.1,340.9v-78.2c0-6.2-5.1-11.3-11.3-11.3l0,0c-6.2,0-11.3,5.1-11.3,11.3v78.2c-3.1,0.1-5.7,2.6-5.7,5.8
		v5.4c0,3.1,2.5,5.7,5.7,5.8v52.2c0,6.2,5.1,11.3,11.3,11.3l0,0c6.2,0,11.3-5.1,11.3-11.3v-52.2c3.1-0.1,5.7-2.6,5.7-5.8v-5.4
		C260.8,343.5,258.2,340.9,255.1,340.9z"/>
	<path class="st0" d="M292,369.5V262.6c0-6.2-5.1-11.3-11.3-11.3l0,0c-6.2,0-11.3,5.1-11.3,11.3v106.9c-3.1,0.1-5.7,2.6-5.7,5.8v5.4
		c0,3.1,2.5,5.7,5.7,5.8V410c0,6.2,5.1,11.3,11.3,11.3l0,0c6.2,0,11.3-5.1,11.3-11.3v-23.5c3.1-0.1,5.7-2.6,5.7-5.8v-5.4
		C297.6,372.2,295.1,369.6,292,369.5z"/>
	<path class="st0" d="M328.8,278.2v-15.5c0-6.2-5.1-11.3-11.3-11.3l0,0c-6.2,0-11.3,5.1-11.3,11.3v15.5c-3.1,0.1-5.7,2.6-5.7,5.8
		v5.4c0,3.1,2.5,5.7,5.7,5.8v114.9c0,6.2,5.1,11.3,11.3,11.3l0,0c6.2,0,11.3-5.1,11.3-11.3V295.2c3.1-0.1,5.7-2.6,5.7-5.8V284
		C334.5,280.8,331.9,278.3,328.8,278.2z"/>
	<path class="st0" d="M365.6,309.9v-47.2c0-6.2-5.1-11.3-11.3-11.3l0,0c-6.2,0-11.3,5.1-11.3,11.3v47.2c-3.1,0.1-5.7,2.6-5.7,5.8
		v5.4c0,3.1,2.5,5.7,5.7,5.8v83.2c0,6.2,5.1,11.3,11.3,11.3l0,0c6.2,0,11.3-5.1,11.3-11.3v-83.2c3.1-0.1,5.7-2.6,5.7-5.8v-5.4
		C371.3,312.5,368.7,309.9,365.6,309.9z"/>
</g>
</svg>
