<?xml version="1.0" encoding="utf-8"?>
<svg version="1.1" id="Ebene_1" xmlns="http://www.w3.org/2000/svg" xmlns:xlink="http://www.w3.org/1999/xlink" x="0px" y="0px"
	 viewBox="-282 222.9 251.8 400" style="enable-background:new -282 222.9 251.8 400;" xml:space="preserve">
<style type="text/css">
	.st0{fill:#FFFFFF;}
</style>
<path class="st0" d="M-30.2,404.9c0,0-16.2,0.2-17.2,0c-0.3-5.9-0.6-12.3-0.8-18.4c-0.4-16-0.5-32-1.1-47.9
	c-1.2-32.4-10.9-61.6-34-85c-16.9-17.1-37.6-27-61.7-29.9c-28.1-3.3-53.5,3.3-76.2,20.2c-12.5,9.3-22.2,21.3-29.9,34.4
	c-7,12-12.1,25.5-13.1,39.7c-2.1,28.8-1.6,55.5-1.1,83.2c0,1,0,2,0,3.7h-15.8c0,36.1-0.9,218-0.9,218h251.8
	C-30.2,622.9-30.2,471.7-30.2,404.9z M-143.1,509.6v64.3h-26.1v-64.3c-7.8-4.5-13-12.9-13-22.6c0-14.4,11.7-26.1,26.1-26.1
	S-130,472.6-130,487C-130,496.7-135.3,505.1-143.1,509.6z M-88.6,404.9c-45.5,0-90.8,0-136.4,0c-0.1-1.9-0.1-33.5-0.3-48.5
	c-0.2-20,0.4-41.3,9.8-59.5c10.6-20.3,28.1-29.6,50.2-32.2c11.7-1.4,22.7-0.3,33.4,4.1c21.1,8.6,32.3,25.6,38.2,46.5
	c2.6,9.3,4.3,19.1,4.6,28.7C-88.1,364.1-88.6,384.3-88.6,404.9z"/>
</svg>
