<?xml version="1.0" encoding="utf-8"?>
<svg version="1.1" id="Ebene_1" xmlns="http://www.w3.org/2000/svg" xmlns:xlink="http://www.w3.org/1999/xlink" x="0px" y="0px"
	 viewBox="100.2 214.9 396 412.1" style="enable-background:new 100.2 214.9 396 412.1;" xml:space="preserve">
<style type="text/css">
	.st0{fill:#FFFFFF;}
</style>
<g id="Bulb">
</g>
<g id="Ebene_2">
	<g>
		<g>
			<ellipse class="st0" cx="298.2" cy="420.9" rx="125.9" ry="131.1"/>
		</g>
		<g>
			<polygon class="st0" points="288.2,276.3 276.4,214.9 317.7,214.9 305.9,276.3 			"/>
		</g>
		<g>
			<polygon class="st0" points="369.7,296.3 393.9,239 427.7,263.7 384.2,306.9 			"/>
		</g>
		<g>
			<polygon class="st0" points="419.3,349.1 467.4,311.6 485.2,350.4 426.9,365.7 			"/>
		</g>
		<g>
			<polygon class="st0" points="437.2,413 496.1,400.6 496.2,443.6 437.2,431.4 			"/>
		</g>
		<g>
			<polygon class="st0" points="226.9,296.5 202.7,239.2 168.9,263.8 212.4,307 			"/>
		</g>
		<g>
			<polygon class="st0" points="177,349.1 128.9,311.6 111.2,350.4 169.4,365.7 			"/>
		</g>
		<g>
			<polygon class="st0" points="159.1,413 100.2,400.6 100.2,443.6 159.1,431.4 			"/>
		</g>
		<g>
			<polygon class="st0" points="288.2,565.6 276.4,627 317.7,627 305.9,565.6 			"/>
		</g>
		<g>
			<polygon class="st0" points="369.6,545.7 393.8,603 427.5,578.4 384.1,535.1 			"/>
		</g>
		<g>
			<polygon class="st0" points="419.3,492.8 467.4,530.3 485.2,491.5 426.9,476.2 			"/>
		</g>
		<g>
			<polygon class="st0" points="226.8,545.7 202.6,603 168.8,578.4 212.3,535.1 			"/>
		</g>
		<g>
			<polygon class="st0" points="177,492.8 128.9,530.3 111.2,491.5 169.4,476.2 			"/>
		</g>
	</g>
</g>
</svg>
