<?xml version="1.0" encoding="utf-8"?>
<svg version="1.1" id="Ebene_2" xmlns="http://www.w3.org/2000/svg" xmlns:xlink="http://www.w3.org/1999/xlink" x="0px" y="0px"
	 viewBox="-180 347.3 287.7 98.6" style="enable-background:new -180 347.3 287.7 98.6;" xml:space="preserve">
<style type="text/css">
	.st0{fill:#285EB4;}
</style>
<g>
	<path class="st0" d="M-172,431.4h2.4c1.4,8.2,8.6,14.5,17.2,14.5c8.6,0,15.8-6.3,17.2-14.5h10.6c1.4,8.2,8.6,14.5,17.2,14.5
		s15.8-6.3,17.2-14.5h10.6c1.4,8.2,8.6,14.5,17.2,14.5s15.8-6.3,17.2-14.5h10.6c1.4,8.2,8.6,14.5,17.2,14.5s15.8-6.3,17.2-14.5h10.6
		c1.4,8.2,8.6,14.5,17.2,14.5s15.8-6.3,17.2-14.5h0.8c4.4,0,8-3.6,8-8v-19c0-4.4-3.6-8-8-8H-172c-4.4,0-8,3.6-8,8v19
		C-180,427.8-176.4,431.4-172,431.4z"/>
	<path class="st0" d="M107.5,346.9l-223.7,0.4c0,0,4,49.1-54.7,49.1L53,398.7c11.5,0,20.7-1.8,27.9-4.8c0,0,0,0,0,0c0,0,0,0,0,0
		C111.6,381.2,107.5,346.9,107.5,346.9z"/>
</g>
</svg>
