<?xml version="1.0" encoding="utf-8"?>
<svg version="1.1" id="Ebene_2" xmlns="http://www.w3.org/2000/svg" xmlns:xlink="http://www.w3.org/1999/xlink" x="0px" y="0px"
	 viewBox="-180 347.3 287.7 98.6" style="enable-background:new -180 347.3 287.7 98.6;" xml:space="preserve">
<style type="text/css">
	.st0{fill:#285EB4;}
</style>
<path class="st0" d="M-117.9,382.3h2.4c1.4,8.2,8.6,14.5,17.2,14.5s15.8-6.3,17.2-14.5h10.6c1.4,8.2,8.6,14.5,17.2,14.5
	s15.8-6.3,17.2-14.5h10.6c1.4,8.2,8.6,14.5,17.2,14.5s15.8-6.3,17.2-14.5h10.6c1.4,8.2,8.6,14.5,17.2,14.5s15.8-6.3,17.2-14.5h10.6
	c1.4,8.2,8.6,14.5,17.2,14.5s15.8-6.3,17.2-14.5h0.8c4.4,0,8-3.6,8-8v-19c0-4.4-3.6-8-8-8h-217.6c-4.4,0-8,3.6-8,8v19
	C-125.9,378.7-122.3,382.3-117.9,382.3z"/>
</svg>
