<?xml version="1.0" encoding="utf-8"?>
<svg version="1.1" id="Bulb" xmlns="http://www.w3.org/2000/svg" xmlns:xlink="http://www.w3.org/1999/xlink" x="0px" y="0px"
	 viewBox="0 0 305.2 248.6" style="enable-background:new 0 0 305.2 248.6;" xml:space="preserve">
<style type="text/css">
	.st0{fill:#285EB4;}
</style>
<g>
	<g>
		<path class="st0" d="M249.5,60.8c3.4,0,6.8,0,10.2,0c3.6,0,9.1,2.5,11.9,5.6c44.8,50.2,44.8,126.3,0,176.5
			c-2.8,3.1-8.3,5.6-11.9,5.6c-3.4,0-6.8,0-10.2,0c-3.6,0-4.1-2.5-1.3-5.6c44.8-50.2,44.8-126.3,0-176.5
			C245.4,63.3,245.8,60.8,249.5,60.8z"/>
	</g>
	<g>
		<path class="st0" d="M211.5,69.4c3.1,0,6.2,0,9.3,0c3.3,0,8.3,2.2,10.8,5.1c40.7,45.7,40.7,114.8,0,160.5
			c-2.5,2.9-7.5,5.1-10.8,5.1c-3.1,0-6.2,0-9.3,0c-3.3,0-3.8-2.2-1.2-5.1c40.7-45.7,40.7-114.8,0-160.5
			C207.7,71.6,208.2,69.4,211.5,69.4z"/>
	</g>
	<g>
		<path class="st0" d="M176.9,77.1c2.8,0,5.6,0,8.4,0c3,0,7.5,2,9.8,4.6c37,41.5,37,104.4,0,145.9c-2.3,2.6-6.8,4.6-9.8,4.6
			c-2.8,0-5.6,0-8.4,0c-3,0-3.4-2-1.1-4.6c37-41.5,37-104.4,0-145.9C173.5,79.2,173.9,77.1,176.9,77.1z"/>
	</g>
	<g>
		<path class="st0" d="M145.5,84.2c2.6,0,5.1,0,7.7,0c2.7,0,6.8,1.8,9,4.2c33.6,37.7,33.6,94.9,0,132.6c-2.1,2.4-6.2,4.2-9,4.2
			c-2.6,0-5.1,0-7.7,0c-2.7,0-3.1-1.8-1-4.2c33.6-37.7,33.6-94.9,0-132.6C142.4,86,142.8,84.2,145.5,84.2z"/>
	</g>
	<g>
		<path class="st0" d="M116.9,90.6c2.3,0,4.7,0,7,0c2.5,0,6.2,1.7,8.1,3.8c30.6,34.3,30.6,86.3,0,120.6c-1.9,2.1-5.7,3.8-8.1,3.8
			c-2.3,0-4.7,0-7,0c-2.5,0-2.8-1.7-0.9-3.8c30.6-34.3,30.6-86.3,0-120.6C114.1,92.3,114.5,90.6,116.9,90.6z"/>
	</g>
</g>
<path class="st0" d="M104.5,154.7c0-25.4-16.7-46.9-39.7-54.1V22.7C64.8,10.2,54.6,0,42.1,0H22.7C10.2,0,0,10.2,0,22.7v101.5v61
	v23.2c0,12.5,10.2,22.7,22.7,22.7h19.4c12.3,0,22.5-10,22.7-22.3C87.8,201.6,104.5,180.1,104.5,154.7z"/>
</svg>
