<?xml version="1.0" encoding="utf-8"?>
<svg version="1.1" id="Ebene_2" xmlns="http://www.w3.org/2000/svg" xmlns:xlink="http://www.w3.org/1999/xlink" x="0px" y="0px"
	 viewBox="0 0 262.2 391.2" style="enable-background:new 0 0 262.2 391.2;" xml:space="preserve">
<style type="text/css">
	.st0{fill:#285EB4;}
</style>
<path class="st0" d="M262.2,29.8H262l0.1-0.5L70.9,0v24.7v4.5v238.6c-6.4-2.6-13.7-4.1-21.3-4.1c-27.4,0-49.6,19-49.6,42.5
	s22.2,42.5,49.6,42.5c27.4,0,49.6-19,49.6-42.5V102.5l134.6,21.3v186.4c-6.4-2.6-13.7-4.1-21.3-4.1c-27.4,0-49.6,19-49.6,42.5
	s22.2,42.5,49.6,42.5c27.4,0,49.6-19,49.6-42.5V29.8z M99.2,73.8V33.6l134.6,21.2v40.2L99.2,73.8z"/>
</svg>
