<?xml version="1.0" encoding="utf-8"?>
<svg version="1.1" id="Bulb" xmlns="http://www.w3.org/2000/svg" xmlns:xlink="http://www.w3.org/1999/xlink" x="0px" y="0px"
	 viewBox="-42 343 510.2 155.9" style="enable-background:new -42 343 510.2 155.9;" xml:space="preserve">
<style type="text/css">
	.st0{fill:#285EB4;}
</style>
<path class="st0" d="M383.2,343v21.3h56.7v73.9c-3.9,1.2-7.9,1.8-12.2,1.8c-14.8,0-27.8-7.6-35.4-19c-7.6,11.5-20.6,19-35.4,19
	s-27.8-7.6-35.4-19c-7.6,11.5-20.6,19-35.4,19s-27.8-7.6-35.4-19c-7.6,11.5-20.6,19-35.4,19s-27.8-7.6-35.4-19
	c-7.6,11.5-20.6,19-35.4,19s-27.8-7.6-35.4-19c-7.6,11.5-20.6,19-35.4,19s-28.1-7.6-35.7-19c-7.6,11.5-20.6,19-35.4,19
	c-5.7,0-11.2-1.1-16.2-3.2v-72.5H43V343h-85v155.9h510.2V343H383.2z"/>
<rect x="60" y="343" class="st0" width="306.4" height="21.3"/>
</svg>
