<?xml version="1.0" encoding="utf-8"?>
<svg version="1.1" id="Bulb" xmlns="http://www.w3.org/2000/svg" xmlns:xlink="http://www.w3.org/1999/xlink" x="0px" y="0px"
	 viewBox="-141.9 274.1 141.8 171.8" style="enable-background:new -141.9 274.1 141.8 171.8;" xml:space="preserve">
<style type="text/css">
	.st0{fill:#285EB4;}
</style>
<g>
	<path class="st0" d="M-20.5,343h-101.1c-3.4,0-6.1,2.8-6.1,6.1l0,0c0,3.4,2.8,6.1,6.1,6.1h101.1c3.4,0,6.1-2.8,6.1-6.1l0,0
		C-14.3,345.8-17.1,343-20.5,343z"/>
	<path class="st0" d="M-92.9,399.4c7.1,2.5,12.2,9,12.7,16.8c0,0.2,0,0.3,0,0.5c0,0.4,0,0.8,0.1,1.2c-0.1,6.4-3.4,12-8.4,15.4
		c-1.8,1.2-4,1.9-6.3,1.9h-6.1c-1.6,0-3,1.3-3,3v4.7c0,1.6,1.3,3,3,3h59.8c1.6,0,3-1.3,3-3v-4.7c0-1.6-1.3-3-3-3h-6.1
		c-2.2,0-4.4-0.6-6.2-1.9c-5-3.3-8.3-9-8.4-15.4c0-0.4,0.1-0.8,0.1-1.2c0-0.2,0-0.3,0-0.5c0.5-7.8,5.7-14.3,12.7-16.8
		c34.8-9.5,34.8-41.2,34.8-41.2h-113.5C-127.7,358.2-127.7,389.8-92.9,399.4z"/>
	<path class="st0" d="M-0.3,283.3c0.1-0.5,0.1-1,0.1-1.5c0-4.2-3.5-7.7-7.7-7.7h-126.3c-4.2,0-7.7,3.5-7.7,7.7c0,0.5,0.1,1,0.2,1.5
		h-0.2c0,0,0,54.9,70.9,54.9s70.9-54.9,70.9-54.9H-0.3z M-9.9,287.5c0,3.4-2.8,6.2-6.2,6.2c-1.4,0-2.7-0.5-3.8-1.4
		c-0.1-0.1-0.2-0.2-0.3-0.2c-0.1-0.1-0.2-0.2-0.3-0.3c0,0-0.1-0.1-0.1-0.1c-0.3-0.3-0.6-0.7-0.9-1.1h-17.1v-0.1v-6.1v-0.1h17.1
		c0.2-0.4,0.5-0.8,0.9-1.1c0,0,0.1-0.1,0.1-0.1c0.1-0.1,0.2-0.2,0.3-0.3c0.1-0.1,0.2-0.2,0.3-0.3c1.1-0.8,2.4-1.4,3.8-1.4
		c3.4,0,6.2,2.8,6.2,6.2C-9.9,287.5-9.9,287.5-9.9,287.5C-9.9,287.5-9.9,287.5-9.9,287.5z"/>
</g>
</svg>
