<?xml version="1.0" encoding="utf-8"?>
<svg version="1.1" id="Bulb" xmlns="http://www.w3.org/2000/svg" xmlns:xlink="http://www.w3.org/1999/xlink" x="0px" y="0px"
	 viewBox="0 0 233 91.5" style="enable-background:new 0 0 233 91.5;" xml:space="preserve">
<style type="text/css">
	.st0{fill:#285EB4;}
</style>
<path class="st0" d="M225.3,0c-4.2,0-7.6,3.4-7.6,7.6v30.3h-10.6c9.5-2.5,14.2-7.5,4.2-17c-17.6-16.8-50.4-4.8-59.3-1
	c-1.6,0.7-3.1,1.7-4.3,3c-8.6,8.8-3.4,13.1,3.5,15.1h-21.8c0,0,0,0,0.1,0c18.4-5.3,15.6-14.8,0-20.7c-9.9-3.7-35-3.6-58-3.4
	c-17,0.1-32.2-1.2-43.1,3.4c-25.7,11,0,20.7,0,20.7c0,0,0,0,0,0H18.1h-1.9c-0.3,0-0.6,0-1,0.1V17.8c0-3.8-3.1-6.9-6.9-6.9H6.9
	C3.1,10.9,0,14,0,17.8v66.5c0,4,3.2,7.2,7.2,7.2h4.7c3.8,0,6.9-3.1,6.9-6.9V73.1c0-3.8,3.1-6.9,6.9-6.9h180.3c3.8,0,6.9,3.1,6.9,6.9
	v11.5c0,3.8,3.1,6.9,6.9,6.9h3.8c0.3,0,0.6,0,0.9-0.1c0.3,0,0.7,0.1,1,0.1c4.2,0,7.6-3.4,7.6-7.6V7.6C233,3.4,229.6,0,225.3,0z"/>
</svg>
