<?xml version="1.0" encoding="utf-8"?>
<svg version="1.1" id="Bulb" xmlns="http://www.w3.org/2000/svg" xmlns:xlink="http://www.w3.org/1999/xlink" x="0px" y="0px"
	 viewBox="0 0 405.5 280.8" style="enable-background:new 0 0 405.5 280.8;" xml:space="preserve">
<style type="text/css">
	.st0{fill:#5285D6;}
</style>
<path class="st0" d="M396.5,201.5h-30.6V64c0-5.5,4.5-10,10-10s10-4.5,10-10v-7.6c0-5.5-4.5-10-10-10H224.5c-5.5,0-10,4.5-10,10V44
	c0,5.5,4.5,10,10,10h1c5.5,0,10,4.5,10,10v51c0,5.5-4.5,10-10,10h-90.2c-5.5,0-10-4.5-10-10V31h8.2c6.5,0,11.8-5.3,11.8-11.8v-7.4
	c0-6.5-5.3-11.8-11.8-11.8h-67C60,0,54.7,5.3,54.7,11.8v7.4C54.7,25.7,60,31,66.5,31h8.2V115c0,5.5-4.5,10-10,10h-4.4
	c-5.5,0-10,4.5-10,10v61.2c0,2,0.6,3.8,1.5,5.3H9c-5,0-9,4-9,9v11.3c0,5,4,9,9,9h7.5h4.8c-2.4,4.7-3.8,10-3.8,15.6
	c0,18.9,15.4,34.3,34.3,34.3c18.9,0,34.3-15.4,34.3-34.3c0-0.3,0-0.7,0-1h32.5c0,0.3,0,0.7,0,1c0,18.9,15.4,34.3,34.3,34.3
	c18.9,0,34.3-15.4,34.3-34.3c0-0.3,0-0.7,0-1h32.5c0,0.3,0,0.7,0,1c0,18.9,15.4,34.3,34.3,34.3c18.9,0,34.3-15.4,34.3-34.3
	c0-0.3,0-0.7,0-1h32.5c0,0.3,0,0.7,0,1c0,18.9,15.4,34.3,34.3,34.3c18.9,0,34.3-15.4,34.3-34.3c0-5.6-1.4-10.9-3.8-15.6h4.3h6.7
	c5,0,9-4,9-9v-11.3C405.5,205.6,401.5,201.5,396.5,201.5z M265.9,86.4c0-5.5,4.5-10,10-10h51.4c5.5,0,10,4.5,10,10v17.1
	c0,5.5-4.5,10-10,10h-51.4c-5.5,0-10-4.5-10-10V86.4z M85.5,239.8c-0.6-3.2-1.7-6.2-3.1-8.9h40c-1.4,2.8-2.5,5.8-3.1,8.9H85.5z
	 M186.6,239.8c-0.6-3.2-1.7-6.2-3.1-8.9h11.4h16.6h11.9c-1.4,2.8-2.5,5.8-3.1,8.9H186.6z M321.3,239.8h-33.7
	c-0.6-3.2-1.7-6.2-3.1-8.9h40C323,233.7,322,236.7,321.3,239.8z"/>
</svg>
