<?xml version="1.0" encoding="utf-8"?>
<svg version="1.1" id="Bulb" xmlns="http://www.w3.org/2000/svg" xmlns:xlink="http://www.w3.org/1999/xlink" x="0px" y="0px"
	 viewBox="0 0 341.2 165.6" style="enable-background:new 0 0 341.2 165.6;" xml:space="preserve">
<style type="text/css">
	.st0{fill:#285EB4;}
</style>
<g>
	<path class="st0" d="M149.7,0H84.8c-9.6,0-17.5,7.9-17.5,17.5v64.9c0,9.6,7.9,17.5,17.5,17.5h64.9c9.6,0,17.5-7.9,17.5-17.5V17.5
		C167.2,7.9,159.3,0,149.7,0z"/>
	<path class="st0" d="M43.7,58H17.5C7.9,58,0,65.9,0,75.5v72.6c0,9.6,7.9,17.5,17.5,17.5h26.2c9.6,0,17.5-7.9,17.5-17.5V75.5
		C61.2,65.9,53.3,58,43.7,58z"/>
	<path class="st0" d="M149.7,104.4H84.8c-9.6,0-17.5,7.9-17.5,17.5v26.2c0,9.6,7.9,17.5,17.5,17.5h64.9c9.6,0,17.5-7.9,17.5-17.5
		v-26.2C167.2,112.3,159.3,104.4,149.7,104.4z"/>
	<path class="st0" d="M256.5,0h-64.9C181.9,0,174,7.9,174,17.5v64.9c0,9.6,7.9,17.5,17.5,17.5h64.9c9.6,0,17.5-7.9,17.5-17.5V17.5
		C274,7.9,266.1,0,256.5,0z"/>
	<path class="st0" d="M323.7,58h-26.2c-9.6,0-17.5,7.9-17.5,17.5v72.6c0,9.6,7.9,17.5,17.5,17.5h26.2c9.6,0,17.5-7.9,17.5-17.5V75.5
		C341.2,65.9,333.3,58,323.7,58z"/>
	<path class="st0" d="M256.5,104.4h-64.9c-9.6,0-17.5,7.9-17.5,17.5v26.2c0,9.6,7.9,17.5,17.5,17.5h64.9c9.6,0,17.5-7.9,17.5-17.5
		v-26.2C274,112.3,266.1,104.4,256.5,104.4z"/>
</g>
</svg>
