<?xml version="1.0" encoding="utf-8"?>
<svg version="1.1" id="Ebene_2" xmlns="http://www.w3.org/2000/svg" xmlns:xlink="http://www.w3.org/1999/xlink" x="0px" y="0px"
	 viewBox="0 0 144.5 170.1" style="enable-background:new 0 0 144.5 170.1;" xml:space="preserve">
<style type="text/css">
	.st0{fill:#285EB4;}
</style>
<g>
	<path class="st0" d="M28.3,89.5V11.3C28.3,5.1,23.2,0,17,0h0C10.8,0,5.7,5.1,5.7,11.3v78.2C2.5,89.6,0,92.2,0,95.3v5.4
		c0,3.1,2.5,5.7,5.7,5.8v52.2c0,6.2,5.1,11.3,11.3,11.3h0c6.2,0,11.3-5.1,11.3-11.3v-52.2c3.1-0.1,5.7-2.6,5.7-5.8v-5.4
		C34,92.2,31.5,89.6,28.3,89.5z"/>
	<path class="st0" d="M65.2,118.2V11.3C65.2,5.1,60.1,0,53.9,0h0c-6.2,0-11.3,5.1-11.3,11.3v106.9c-3.1,0.1-5.7,2.6-5.7,5.8v5.4
		c0,3.1,2.5,5.7,5.7,5.8v23.5c0,6.2,5.1,11.3,11.3,11.3h0c6.2,0,11.3-5.1,11.3-11.3v-23.5c3.1-0.1,5.7-2.6,5.7-5.8V124
		C70.9,120.9,68.3,118.3,65.2,118.2z"/>
	<path class="st0" d="M102,26.9V11.3C102,5.1,96.9,0,90.7,0h0c-6.2,0-11.3,5.1-11.3,11.3v15.5c-3.1,0.1-5.7,2.6-5.7,5.8v5.4
		c0,3.1,2.5,5.7,5.7,5.8v114.9c0,6.2,5.1,11.3,11.3,11.3h0c6.2,0,11.3-5.1,11.3-11.3V43.9c3.1-0.1,5.7-2.6,5.7-5.8v-5.4
		C107.7,29.5,105.2,26.9,102,26.9z"/>
	<path class="st0" d="M138.8,58.5V11.3c0-6.2-5.1-11.3-11.3-11.3h0c-6.2,0-11.3,5.1-11.3,11.3v47.2c-3.1,0.1-5.7,2.6-5.7,5.8v5.4
		c0,3.1,2.5,5.7,5.7,5.8v83.2c0,6.2,5.1,11.3,11.3,11.3h0c6.2,0,11.3-5.1,11.3-11.3V75.5c3.1-0.1,5.7-2.6,5.7-5.8v-5.4
		C144.5,61.2,142,58.6,138.8,58.5z"/>
</g>
</svg>
