<?xml version="1.0" encoding="utf-8"?>
<svg version="1.1" id="Ebene_2" xmlns="http://www.w3.org/2000/svg" xmlns:xlink="http://www.w3.org/1999/xlink" x="0px" y="0px"
	 viewBox="0 0 251.8 400" style="enable-background:new 0 0 251.8 400;" xml:space="preserve">
<style type="text/css">
	.st0{fill:#285EB4;}
</style>
<path class="st0" d="M251.8,182c0,0-16.2,0.2-17.2,0c-0.3-5.9-0.6-12.3-0.8-18.4c-0.4-16-0.5-32-1.1-47.9c-1.2-32.4-10.9-61.6-34-85
	c-16.9-17.1-37.6-27-61.7-29.9C108.9-2.5,83.5,4.1,60.8,21c-12.5,9.3-22.2,21.3-29.9,34.4c-7,12-12.1,25.5-13.1,39.7
	c-2.1,28.8-1.6,55.5-1.1,83.2c0,1,0,2,0,3.7l-15.8,0C0.9,218.1,0,400,0,400h251.8C251.8,400,251.8,248.8,251.8,182z M138.9,286.7
	V351h-26.1v-64.3c-7.8-4.5-13-12.9-13-22.6c0-14.4,11.7-26.1,26.1-26.1c14.4,0,26.1,11.7,26.1,26.1
	C152,273.8,146.7,282.2,138.9,286.7z M193.4,182c-45.5,0-90.8,0-136.4,0c-0.1-1.9-0.1-33.5-0.3-48.5c-0.2-20,0.4-41.3,9.8-59.5
	c10.6-20.3,28.1-29.6,50.2-32.2c11.7-1.4,22.7-0.3,33.4,4.1c21.1,8.6,32.3,25.6,38.2,46.5c2.6,9.3,4.3,19.1,4.6,28.7
	C193.9,141.2,193.4,161.4,193.4,182z"/>
</svg>
