<?xml version="1.0" encoding="utf-8"?>
<svg version="1.1" id="Ebene_2" xmlns="http://www.w3.org/2000/svg" xmlns:xlink="http://www.w3.org/1999/xlink" x="0px" y="0px"
	 viewBox="0 0 141.7 170.1" style="enable-background:new 0 0 141.7 170.1;" xml:space="preserve">
<style type="text/css">
	.st0{fill:#285EB4;}
</style>
<path class="st0" d="M70.9,0L0,56.7v113.4h141.7V56.7L70.9,0z M90,51.9l6.9,4.8L88,65.2l-3-2.1L90,51.9z M74.6,47.6l-2.4,12h-3.6
	l-2.4-12H74.6z M51.3,51.9l4.9,11.2l-3,2.1l-8.9-8.5L51.3,51.9z M41.9,89.3l-12,2.4l0-8.4l12,2.4L41.9,89.3z M44.4,76.5l-11.9-3
	l3.6-7.6l9.8,7.4L44.4,76.5z M73.2,144.7h-5.4c-1,0-1.8-0.8-1.8-1.8c0-1,0.8-1.8,1.8-1.8h5.4c1,0,1.8,0.8,1.8,1.8
	C75,143.9,74.2,144.7,73.2,144.7z M77.7,138.7H63.3c-1,0-1.8-0.8-1.8-1.8s0.8-1.8,1.8-1.8h14.4c1,0,1.8,0.8,1.8,1.8
	S78.7,138.7,77.7,138.7z M77.7,132.7H63.3c-1,0-1.8-0.8-1.8-1.8c0-1,0.8-1.8,1.8-1.8h14.4c1,0,1.8,0.8,1.8,1.8
	C79.6,131.9,78.7,132.7,77.7,132.7z M83.8,112.1c-4.1,6-0.5,14.3-3.6,13.8l-9.6,0.1v0l-0.1,0l-0.1,0v0l-9.6-0.1
	c-3.1,0.5,0.5-7.7-3.6-13.8c-3.5-3.9-10.8-18.5-10.8-23.7c0-13.6,10.8-25.5,24.1-24.9C83.8,63,94.6,74.8,94.6,88.4
	C94.6,93.6,87.4,108.2,83.8,112.1z M95.4,73.2l9.8-7.4l3.6,7.6l-11.9,3L95.4,73.2z M99.4,89.3l0-3.6l12-2.4l0,8.4L99.4,89.3z"/>
</svg>
