<?xml version="1.0" encoding="utf-8"?>
<svg version="1.1" id="Ebene_2" xmlns="http://www.w3.org/2000/svg" xmlns:xlink="http://www.w3.org/1999/xlink" x="0px" y="0px"
	 viewBox="0 0 170.1 168.5" style="enable-background:new 0 0 170.1 168.5;" xml:space="preserve">
<style type="text/css">
	.st0{fill:#285EB4;}
</style>
<path class="st0" d="M96.4,0v21.9H73.7V0C32.1,5.5,0,41.1,0,84.3s32.1,78.7,73.7,84.3v-21.9h22.7v21.9c41.6-5.5,73.7-41.1,73.7-84.3
	S138,5.5,96.4,0z M41.8,95.6c-6.3,0-11.3-5.1-11.3-11.3s5.1-11.3,11.3-11.3c6.3,0,11.3,5.1,11.3,11.3S48.1,95.6,41.8,95.6z
	 M126.2,95.6c-6.3,0-11.3-5.1-11.3-11.3s5.1-11.3,11.3-11.3c6.3,0,11.3,5.1,11.3,11.3S132.4,95.6,126.2,95.6z"/>
</svg>
