<?xml version="1.0" encoding="utf-8"?>
<svg version="1.1" id="Ebene_1" xmlns="http://www.w3.org/2000/svg" xmlns:xlink="http://www.w3.org/1999/xlink" x="0px" y="0px"
	 viewBox="-147 224 350 299.4" style="enable-background:new -147 224 350 299.4;" xml:space="preserve">
<style type="text/css">
	.st0{fill:#285EB4;}
</style>
<g id="Bulb">
</g>
<g>
	<path class="st0" d="M27.9,421.8c-17.2,0-31.2,14-31.2,31.2c0,17.2,14,31.2,31.2,31.2s31.2-14,31.2-31.2
		C59.1,435.8,45.1,421.8,27.9,421.8z M28.9,464.3c-6.3,0-11.3-5.1-11.3-11.3c0-6.3,5.1-11.3,11.3-11.3c6.3,0,11.3,5.1,11.3,11.3
		C40.3,459.3,35.2,464.3,28.9,464.3z"/>
	<path class="st0" d="M-57.1,296.7v226.7h170.1V296.7H-57.1z M28.9,325c11,0,19.8,8.9,19.8,19.8s-8.9,19.8-19.8,19.8
		c-11,0-19.8-8.9-19.8-19.8C9.1,333.9,18,325,28.9,325z M27.9,495.5c-23.5,0-42.5-19-42.5-42.5s19-42.5,42.5-42.5s42.5,19,42.5,42.5
		S51.4,495.5,27.9,495.5z"/>
</g>
</svg>
