<?xml version="1.0" encoding="utf-8"?>
<svg version="1.1" id="Ebene_1" xmlns="http://www.w3.org/2000/svg" xmlns:xlink="http://www.w3.org/1999/xlink" x="0px" y="0px"
	 viewBox="-147 224 350 299.4" style="enable-background:new -147 224 350 299.4;" xml:space="preserve">
<style type="text/css">
	.st0{fill:#285EB4;}
</style>
<g id="Bulb">
</g>
<g>
	<path class="st0" d="M27.9,421.8c-17.2,0-31.2,14-31.2,31.2c0,17.2,14,31.2,31.2,31.2s31.2-14,31.2-31.2
		C59.1,435.8,45.1,421.8,27.9,421.8z M28.9,464.3c-6.3,0-11.3-5.1-11.3-11.3c0-6.3,5.1-11.3,11.3-11.3c6.3,0,11.3,5.1,11.3,11.3
		C40.3,459.3,35.2,464.3,28.9,464.3z"/>
	<path class="st0" d="M-57.1,296.7v226.7h170.1V296.7H-57.1z M28.9,325c11,0,19.8,8.9,19.8,19.8s-8.9,19.8-19.8,19.8
		c-11,0-19.8-8.9-19.8-19.8C9.1,333.9,18,325,28.9,325z M27.9,495.5c-23.5,0-42.5-19-42.5-42.5s19-42.5,42.5-42.5s42.5,19,42.5,42.5
		S51.4,495.5,27.9,495.5z"/>
</g>
<path class="st0" d="M202,246.9L202,246.9l-51.7-8v6.7v1.2v64.5c-1.7-0.7-3.7-1.1-5.7-1.1c-7.4,0-13.4,5.1-13.4,11.5
	c0,6.3,6,11.5,13.4,11.5c7.4,0,13.4-5.1,13.4-11.5v-55l36.4,5.8v50.4c-1.7-0.7-3.7-1.1-5.7-1.1c-7.4,0-13.4,5.1-13.4,11.5
	c0,6.3,6,11.5,13.4,11.5s13.4-5.1,13.4-11.5L202,246.9L202,246.9z M158,258.8v-10.9l36.4,5.7v10.9L158,258.8z"/>
<path class="st0" d="M-68,260.3l-15.3-2.4V247l15.3,2.4v-8l-22.9-3.5v6.7v1.2v64.5c-1.7-0.7-3.7-1.1-5.7-1.1
	c-7.5-0.1-13.5,5.1-13.5,11.4s6,11.5,13.4,11.5s13.4-5.1,13.4-11.5v-55L-68,268V260.3z"/>
<path class="st0" d="M-3.2,239.3l-10.5-1.6v-7.5l10.5,1.6v-5.5l-15.7-2.4v4.6v0.8v44.1c-1.2-0.5-2.5-0.8-3.9-0.8
	c-5.1-0.1-9.2,3.5-9.2,7.8c0,4.3,4.1,7.9,9.2,7.9s9.2-3.5,9.2-7.9V243l10.5,1.6V239.3z"/>
</svg>
