<?xml version="1.0" encoding="utf-8"?>
<svg version="1.1" id="Ebene_2" xmlns="http://www.w3.org/2000/svg" xmlns:xlink="http://www.w3.org/1999/xlink" x="0px" y="0px"
	 viewBox="0 0 255.1 204.2" style="enable-background:new 0 0 255.1 204.2;" xml:space="preserve">
<style type="text/css">
	.st0{fill:#285EB4;}
</style>
<path class="st0" d="M234.2,5.7c-1.2-3.3-4.3-5.7-8-5.7h-68c-3.7,0-6.9,2.4-8,5.7h-44.9c-1.2-3.3-4.3-5.7-8-5.7h-68
	c-3.7,0-6.9,2.4-8,5.7H0v198.4h255.1V5.7H234.2z M160.7,18.5c4.7,0,8.5,3.8,8.5,8.5s-3.8,8.5-8.5,8.5s-8.5-3.8-8.5-8.5
	S156,18.5,160.7,18.5z M95.7,18.5c4.7,0,8.5,3.8,8.5,8.5s-3.8,8.5-8.5,8.5s-8.5-3.8-8.5-8.5S91,18.5,95.7,18.5z M24.2,27
	c0-4.7,3.8-8.5,8.5-8.5s8.5,3.8,8.5,8.5s-3.8,8.5-8.5,8.5S24.2,31.7,24.2,27z M226.8,175.8H28.3V48.3h198.4V175.8z M222.7,35.5
	c-4.7,0-8.5-3.8-8.5-8.5s3.8-8.5,8.5-8.5s8.5,3.8,8.5,8.5S227.4,35.5,222.7,35.5z"/>
</svg>
