<?xml version="1.0" encoding="utf-8"?>
<svg version="1.1" id="Ebene_2" xmlns="http://www.w3.org/2000/svg" xmlns:xlink="http://www.w3.org/1999/xlink" x="0px" y="0px"
	 viewBox="-169 318.7 255.1 204.1" style="enable-background:new -169 318.7 255.1 204.1;" xml:space="preserve">
<style type="text/css">
	.st0{fill:#285EB4;}
</style>
<path class="st0" d="M65.2,324.4c-1.2-3.3-4.3-5.7-8-5.7h-68c-3.7,0-6.9,2.4-8,5.7h-44.9c-1.2-3.3-4.3-5.7-8-5.7h-68
	c-3.7,0-6.9,2.4-8,5.7H-169v198.4H86.1V324.4H65.2z M-8.3,337.2c4.7,0,8.5,3.8,8.5,8.5s-3.8,8.5-8.5,8.5s-8.5-3.8-8.5-8.5
	S-13,337.2-8.3,337.2z M-73.3,337.2c4.7,0,8.5,3.8,8.5,8.5s-3.8,8.5-8.5,8.5s-8.5-3.8-8.5-8.5S-78,337.2-73.3,337.2z M-144.8,345.7
	c0-4.7,3.8-8.5,8.5-8.5s8.5,3.8,8.5,8.5s-3.8,8.5-8.5,8.5S-144.8,350.4-144.8,345.7z M57.8,494.5h-198.5V367H57.7v127.5H57.8z
	 M53.7,354.2c-4.7,0-8.5-3.8-8.5-8.5s3.8-8.5,8.5-8.5s8.5,3.8,8.5,8.5S58.4,354.2,53.7,354.2z"/>
<path class="st0" d="M-73.5,388.3c-3.8,0-1.2,11.9-10.1,24.8c-8.8,12.8-18,34.5-16,62.6c0.4,6.1,4.9,13,2.8,18.8H-66
	c1.4-5.8,0.4-14-3.3-18.8c-10.5-13.8,1-46.5,5.6-62.2C-59.7,399.3-69.7,388.3-73.5,388.3z"/>
<path class="st0" d="M-33.6,388.3c-3.8,0-1.2,11.9-10.1,24.8c-8.8,12.8-18,34.5-16,62.6c0.4,6.1,4.9,13,2.8,18.8h30.7
	c1.4-5.8,0.4-14-3.3-18.8c-10.5-13.8,1-46.5,5.6-62.2C-19.8,399.3-29.8,388.3-33.6,388.3z"/>
<path class="st0" d="M6.3,388.3c-3.8,0-1.2,11.9-10.1,24.8c-8.8,12.8-18,34.5-16,62.6c0.4,6.1,4.9,13,2.8,18.8h30.7
	c1.4-5.8,0.4-14-3.3-18.8c-10.5-13.8,1-46.5,5.6-62.2C20.1,399.3,10.1,388.3,6.3,388.3z"/>
</svg>
