<?xml version="1.0" encoding="utf-8"?>
<svg version="1.1" id="Ebene_2" xmlns="http://www.w3.org/2000/svg" xmlns:xlink="http://www.w3.org/1999/xlink" x="0px" y="0px"
	 viewBox="0 0 270 144.6" style="enable-background:new 0 0 270 144.6;" xml:space="preserve">
<style type="text/css">
	.st0{fill:#777777;}
</style>
<path class="st0" d="M33.5,77c1.2,0,2.4,0.1,3.5,0.2C42.1,51.4,64.8,32,92,32c3.3,0,6.6,0.3,9.7,0.9C114.6,13.1,136.9,0,162.3,0
	c35.5,0,65,25.6,71.1,59.4C254.1,62.3,270,80,270,101.5c0,23.5-19,42.5-42.5,42.5c-10.5,0-20-3.8-27.4-10
	c-11,6.7-23.9,10.6-37.8,10.6c-14,0-27-4-38-10.8C115.1,140.2,104,144,92,144c-12.6,0-24.2-4.1-33.5-11.1c-6.1,6.8-15,11.1-25,11.1
	C15,144,0,129,0,110.5C0,92,15,77,33.5,77z"/>
</svg>
