<?xml version="1.0" encoding="utf-8"?>
<svg version="1.1" id="Ebene_2" xmlns="http://www.w3.org/2000/svg" xmlns:xlink="http://www.w3.org/1999/xlink" x="0px" y="0px"
	 viewBox="0 0 320.9 203.5" style="enable-background:new 0 0 320.9 203.5;" xml:space="preserve">
<style type="text/css">
	.st10{fill:#FFB119;}
	.st11{fill:#F7F7F7;}
</style>
<g>
	<path class="st10" d="M84.4,189.6c-14.4,0-26.6-9-31.4-21.7c-14.9,8.5-32.1,13.4-50.5,13.3c-0.9,0-1.7,0-2.6-0.1
		c17.4,14,39.5,22.4,63.6,22.4c21.6,0,41.6-6.7,58-18.1c-4.4-1.8-8.5-4.2-12.3-7C103.2,185.3,94.3,189.6,84.4,189.6z"/>
	<path class="st10" d="M142.9,77.5c3.3,0,6.6,0.3,9.7,0.9c2.2-3.4,4.7-6.5,7.4-9.5C146.7,29.6,109.9,1.1,66.3,0
		c23.2,18.7,38.1,47.3,38.1,79.4c0,4.9-0.4,9.7-1,14.4C113.5,83.8,127.5,77.5,142.9,77.5z"/>
	<path class="st11" d="M284.3,105c-6.1-33.8-35.6-59.4-71.1-59.4c-21,0-39.9,9-53.1,23.3c-2.7,3-5.2,6.1-7.4,9.5
		c-3.2-0.6-6.4-0.9-9.7-0.9c-15.4,0-29.4,6.2-39.5,16.3c-7.7,7.7-13.2,17.7-15.4,28.8c-1.2-0.1-2.3-0.2-3.5-0.2
		c-18.5,0-33.5,15-33.5,33.5c0,4.2,0.8,8.1,2.1,11.8c4.8,12.7,17,21.7,31.4,21.7c9.9,0,18.8-4.3,25-11.1c3.8,2.8,7.9,5.2,12.3,7
		c6.6,2.7,13.7,4.2,21.3,4.2c12,0,23.1-3.8,32.2-10.2c11,6.8,24.1,10.8,38,10.8c13.8,0,26.8-3.9,37.8-10.6c7.4,6.3,17,10,27.4,10
		c23.5,0,42.5-19,42.5-42.5C320.9,125.6,305,107.9,284.3,105z"/>
</g>
</svg>
