<?xml version="1.0" encoding="utf-8"?>
<svg version="1.1" id="Ebene_2" xmlns="http://www.w3.org/2000/svg" xmlns:xlink="http://www.w3.org/1999/xlink" x="0px" y="0px"
	 viewBox="0 0 270 253.7" style="enable-background:new 0 0 270 253.7;" xml:space="preserve">
<style type="text/css">
	.st1000{fill:#777777;}
	.st1111{fill:#143B7E;}
</style>
<g>
	<path class="st1000" d="M233.4,59.4C227.3,25.6,197.8,0,162.3,0c-25.4,0-47.6,13.1-60.6,32.8C98.6,32.3,95.3,32,92,32
		c-27.2,0-49.9,19.4-55,45.2C35.9,77,34.7,77,33.5,77C15,77,0,92,0,110.5C0,129,15,144,33.5,144c9.9,0,18.8-4.3,25-11.1
		c9.4,7,21,11.1,33.5,11.1c12,0,23.1-3.8,32.2-10.2c11,6.8,24.1,10.8,38,10.8c13.8,0,26.8-3.9,37.8-10.6c7.4,6.3,17,10,27.4,10
		c23.5,0,42.5-19,42.5-42.5C270,80,254.1,62.3,233.4,59.4z"/>
	<path class="st1111" d="M41.1,179.6c0,0,4.8,4,11.6,0c5.4-3.2,4.7-9.4,0.2-12.9c-2.4-1.9-5.6-5-6.1-12.4c0,0-0.2,8.9-4.7,12.5
		C35.2,172.4,39,178.5,41.1,179.6z M49.9,169c0,0,9.1,3.7,0.7,8.8C47.6,179.6,54.2,176.7,49.9,169z"/>
	<path class="st1111" d="M68.4,204c-2.4-1.9-5.6-5-6.1-12.4c0,0-0.2,8.9-4.7,12.5c-6.9,5.6-3.1,11.7-1,12.8c0,0,4.8,4,11.6,0
		C73.6,213.7,72.9,207.5,68.4,204z M66.2,215c-3.1,1.9,3.5-1-0.7-8.8C65.4,206.2,74.5,209.9,66.2,215z"/>
	<path class="st1111" d="M69.5,179.6c0,0,4.8,4,11.6,0c5.4-3.2,4.7-9.4,0.2-12.9c-2.4-1.9-5.6-5-6.1-12.4c0,0-0.2,8.9-4.7,12.5
		C63.5,172.4,67.3,178.5,69.5,179.6z M78.2,169c0,0,9.1,3.7,0.7,8.8C75.9,179.6,82.5,176.7,78.2,169z"/>
	<path class="st1111" d="M96.8,204c-2.4-1.9-5.6-5-6.1-12.4c0,0-0.2,8.9-4.7,12.5c-6.9,5.6-3.1,11.7-1,12.8c0,0,4.8,4,11.6,0
		C102,213.7,101.3,207.5,96.8,204z M94.5,215c-3.1,1.9,3.5-1-0.7-8.8C93.8,206.2,102.8,209.9,94.5,215z"/>
	<path class="st1111" d="M97.8,179.6c0,0,4.8,4,11.6,0c5.4-3.2,4.7-9.4,0.2-12.9c-2.4-1.9-5.6-5-6.1-12.4c0,0-0.2,8.9-4.7,12.5
		C91.9,172.4,95.7,178.5,97.8,179.6z M106.6,169c0,0,9.1,3.7,0.7,8.8C104.3,179.6,110.8,176.7,106.6,169z"/>
	<path class="st1111" d="M125.1,204c-2.4-1.9-5.6-5-6.1-12.4c0,0-0.2,8.9-4.7,12.5c-6.9,5.6-3.1,11.7-1,12.8c0,0,4.8,4,11.6,0
		C130.3,213.7,129.6,207.5,125.1,204z M122.9,215c-3.1,1.9,3.5-1-0.7-8.8C122.1,206.2,131.2,209.9,122.9,215z"/>
	<path class="st1111" d="M126.2,179.6c0,0,4.8,4,11.6,0c5.4-3.2,4.7-9.4,0.2-12.9c-2.4-1.9-5.6-5-6.1-12.4c0,0-0.2,8.9-4.7,12.5
		C120.2,172.4,124,178.5,126.2,179.6z M134.9,169c0,0,9.1,3.7,0.7,8.8C132.6,179.6,139.2,176.7,134.9,169z"/>
	<path class="st1111" d="M153.5,204c-2.4-1.9-5.6-5-6.1-12.4c0,0-0.2,8.9-4.7,12.5c-6.9,5.6-3.1,11.7-1,12.8c0,0,4.8,4,11.6,0
		C158.6,213.7,158,207.5,153.5,204z M151.2,215c-3.1,1.9,3.5-1-0.7-8.8C150.5,206.2,159.5,209.9,151.2,215z"/>
	<path class="st1111" d="M154.5,179.6c0,0,4.8,4,11.6,0c5.4-3.2,4.7-9.4,0.2-12.9c-2.4-1.9-5.6-5-6.1-12.4c0,0-0.2,8.9-4.7,12.5
		C148.6,172.4,152.4,178.5,154.5,179.6z M163.3,169c0,0,9.1,3.7,0.7,8.8C161,179.6,167.5,176.7,163.3,169z"/>
	<path class="st1111" d="M181.8,204c-2.4-1.9-5.6-5-6.1-12.4c0,0-0.2,8.9-4.7,12.5c-6.9,5.6-3.1,11.7-1,12.8c0,0,4.8,4,11.6,0
		C187,213.7,186.3,207.5,181.8,204z M179.6,215c-3.1,1.9,3.5-1-0.7-8.8C178.8,206.2,187.9,209.9,179.6,215z"/>
	<path class="st1111" d="M182.9,179.6c0,0,4.8,4,11.6,0c5.4-3.2,4.7-9.4,0.2-12.9c-2.4-1.9-5.6-5-6.1-12.4c0,0-0.2,8.9-4.7,12.5
		C176.9,172.4,180.7,178.5,182.9,179.6z M191.6,169c0,0,9.1,3.7,0.7,8.8C189.3,179.6,195.9,176.7,191.6,169z"/>
	<path class="st1111" d="M210.2,204c-2.4-1.9-5.6-5-6.1-12.4c0,0-0.2,8.9-4.7,12.5c-6.9,5.6-3.1,11.7-1,12.8c0,0,4.8,4,11.6,0
		C215.3,213.7,214.7,207.5,210.2,204z M207.9,215c-3.1,1.9,3.5-1-0.7-8.8C207.2,206.2,216.2,209.9,207.9,215z"/>
	<path class="st1111" d="M211.2,179.6c0,0,4.8,4,11.6,0c5.4-3.2,4.7-9.4,0.2-12.9c-2.4-1.9-5.6-5-6.1-12.4c0,0-0.2,8.9-4.7,12.5
		C205.2,172.4,209.1,178.5,211.2,179.6z M220,169c0,0,9.1,3.7,0.7,8.8C217.6,179.6,224.2,176.7,220,169z"/>
	<path class="st1111" d="M238.5,204c-2.4-1.9-5.6-5-6.1-12.4c0,0-0.2,8.9-4.7,12.5c-6.9,5.6-3.1,11.7-1,12.8c0,0,4.8,4,11.6,0
		C243.7,213.7,243,207.5,238.5,204z M236.2,215c-3.1,1.9,3.5-1-0.7-8.8C235.5,206.2,244.6,209.9,236.2,215z"/>
	<path class="st1111" d="M54.8,239c-2.4-1.9-5.6-5-6.1-12.4c0,0-0.2,8.9-4.7,12.5c-6.9,5.6-3.1,11.7-1,12.8c0,0,4.8,4,11.6,0
		C59.9,248.7,59.2,242.5,54.8,239z M52.5,250c-3.1,1.9,3.5-1-0.7-8.8C51.7,241.2,60.8,244.9,52.5,250z"/>
	<path class="st1111" d="M83.1,239c-2.4-1.9-5.6-5-6.1-12.4c0,0-0.2,8.9-4.7,12.5c-6.9,5.6-3.1,11.7-1,12.8c0,0,4.8,4,11.6,0
		C88.3,248.7,87.6,242.5,83.1,239z M80.8,250c-3.1,1.9,3.5-1-0.7-8.8C80.1,241.2,89.1,244.9,80.8,250z"/>
	<path class="st1111" d="M111.4,239c-2.4-1.9-5.6-5-6.1-12.4c0,0-0.2,8.9-4.7,12.5c-6.9,5.6-3.1,11.7-1,12.8c0,0,4.8,4,11.6,0
		C116.6,248.7,115.9,242.5,111.4,239z M109.2,250c-3.1,1.9,3.5-1-0.7-8.8C108.4,241.2,117.5,244.9,109.2,250z"/>
	<path class="st1111" d="M139.8,239c-2.4-1.9-5.6-5-6.1-12.4c0,0-0.2,8.9-4.7,12.5c-6.9,5.6-3.1,11.7-1,12.8c0,0,4.8,4,11.6,0
		C145,248.7,144.3,242.5,139.8,239z M137.5,250c-3.1,1.9,3.5-1-0.7-8.8C136.8,241.2,145.8,244.9,137.5,250z"/>
	<path class="st1111" d="M168.1,239c-2.4-1.9-5.6-5-6.1-12.4c0,0-0.2,8.9-4.7,12.5c-6.9,5.6-3.1,11.7-1,12.8c0,0,4.8,4,11.6,0
		C173.3,248.7,172.6,242.5,168.1,239z M165.9,250c-3.1,1.9,3.5-1-0.7-8.8C165.1,241.2,174.2,244.9,165.9,250z"/>
	<path class="st1111" d="M196.5,239c-2.4-1.9-5.6-5-6.1-12.4c0,0-0.2,8.9-4.7,12.5c-6.9,5.6-3.1,11.7-1,12.8c0,0,4.8,4,11.6,0
		C201.6,248.7,201,242.5,196.5,239z M194.2,250c-3.1,1.9,3.5-1-0.7-8.8C193.5,241.2,202.5,244.9,194.2,250z"/>
	<path class="st1111" d="M224.8,239c-2.4-1.9-5.6-5-6.1-12.4c0,0-0.2,8.9-4.7,12.5c-6.9,5.6-3.1,11.7-1,12.8c0,0,4.8,4,11.6,0
		C230,248.7,229.3,242.5,224.8,239z M222.6,250c-3.1,1.9,3.5-1-0.7-8.8C221.8,241.2,230.9,244.9,222.6,250z"/>
</g>
</svg>
