<?xml version="1.0" encoding="utf-8"?>
<svg version="1.1" id="Ebene_2" xmlns="http://www.w3.org/2000/svg" xmlns:xlink="http://www.w3.org/1999/xlink" x="0px" y="0px"
	 viewBox="-162 270.7 270 301.2" style="enable-background:new -162 270.7 270 301.2;" xml:space="preserve">
<style type="text/css">
	.st10000{fill:#FFB119;}
	.st11111{fill:#777777;}
	.st22{fill:#143B7E;}
</style>
<g>
	<path class="st10000" d="M-69,469.3L-6,455l-36,117l81-153l-63,18l6-24c-6.5-1.7-12.6-4.3-18.2-7.6L-69,469.3z"/>
	<path class="st11111" d="M71.4,330.1c-6.1-33.8-35.6-59.4-71.1-59.4c-25.4,0-47.6,13.1-60.6,32.8c-3.1-0.5-6.4-0.8-9.7-0.8
		c-27.2,0-49.9,19.4-55,45.2c-1.1-0.2-2.3-0.2-3.5-0.2c-18.5,0-33.5,15-33.5,33.5s15,33.5,33.5,33.5c9.9,0,18.8-4.3,25-11.1
		c9.4,7,21,11.1,33.5,11.1c12,0,23.1-3.8,32.2-10.2c0.5,0.3,1,0.6,1.5,0.9c5.6,3.3,11.7,5.9,18.2,7.6c5.8,1.5,12,2.3,18.3,2.3
		c13.8,0,26.8-3.9,37.8-10.6c7.4,6.3,17,10,27.4,10c23.5,0,42.5-19,42.5-42.5C108,350.7,92.1,333,71.4,330.1z"/>
	<path class="st22" d="M-115.1,440.4c-2.4-1.9-5.6-5-6.1-12.4c0,0-0.2,8.9-4.7,12.5c-6.9,5.6-3.1,11.7-1,12.8c0,0,4.8,4,11.6,0
		C-109.9,450.2-110.6,443.9-115.1,440.4z M-117.4,451.4c-3.1,1.9,3.5-1-0.7-8.8C-118.1,442.7-109,446.3-117.4,451.4z"/>
	<path class="st22" d="M-84.6,477.7c-2.4-1.9-5.6-5-6.1-12.4c0,0-0.2,8.9-4.7,12.5c-6.9,5.6-3.1,11.7-1,12.8c0,0,4.8,4,11.6,0
		C-79.4,487.4-80.1,481.2-84.6,477.7z M-86.8,488.7c-3.1,1.9,3.5-1-0.7-8.8C-87.6,479.9-78.5,483.6-86.8,488.7z"/>
	<path class="st22" d="M71.2,449.7c-2.4-1.9-5.6-5-6.1-12.4c0,0-0.2,8.9-4.7,12.5c-6.9,5.6-3.1,11.7-1,12.8c0,0,4.8,4,11.6,0
		C76.3,459.4,75.7,453.2,71.2,449.7z M68.9,460.7c-3.1,1.9,3.5-1-0.7-8.8C68.2,451.9,77.2,455.6,68.9,460.7z"/>
</g>
</svg>
