<?xml version="1.0" encoding="utf-8"?>
<svg version="1.1" id="Ebene_2" xmlns="http://www.w3.org/2000/svg" xmlns:xlink="http://www.w3.org/1999/xlink" x="0px" y="0px"
	 viewBox="0 0 254.3 254.3" style="enable-background:new 0 0 254.3 254.3;" xml:space="preserve">
<style type="text/css">
	.st0{fill:#FFB119;}
</style>
<path class="st0" d="M228.1,128.8c17.1-3.4,28-20.3,25.9-19.8c-8.5,2.1-9.8,8.1-27.2,8.5c-13.2,0.3-31.2-7.2-50.7-7.9
	c18-5.8,36.2-5.8,47.5-12.1c15.2-8.5,20.4-28,18.5-26.8c-7.4,4.6-6.8,10.7-23.2,16.5c-12.5,4.4-31.9,2.8-50.6,8.2
	c15.3-11.1,32.6-16.7,41.4-26.2c11.8-12.8,10.7-32.9,9.3-31.2c-5.6,6.7-3.1,12.3-17,22.8c-10.5,8-29.5,12.5-45.6,23.4
	c11.1-15.3,25.9-26,31.3-37.7c7.3-15.8,0-34.6-0.8-32.6c-3.3,8.1,0.8,12.7-9.1,27c-7.5,10.9-24.2,21-36.2,36.4
	c5.9-18,16.6-32.7,18.1-45.6c2.1-17.3-10.7-32.9-10.8-30.8c-0.6,8.8,4.7,11.8-0.3,28.5c-3.8,12.7-16.5,27.5-23.2,45.8
	c0-18.9,5.7-36.2,3.1-48.9c-3.4-17.1-20.3-28-19.8-25.9c2.1,8.5,8.1,9.8,8.5,27.2c0.3,13.2-7.2,31.2-7.9,50.7
	c-5.8-18-5.8-36.2-12.1-47.5c-8.5-15.2-28-20.4-26.8-18.5c4.6,7.4,10.7,6.8,16.5,23.2c4.4,12.5,2.8,31.9,8.2,50.6
	C84.3,70.6,78.7,53.3,69.2,44.5c-12.8-11.8-32.9-10.7-31.2-9.3c6.7,5.6,12.3,3.1,22.8,17c8,10.5,12.5,29.5,23.4,45.6
	c-15.3-11.1-26-25.9-37.7-31.3c-15.8-7.3-34.6,0-32.6,0.8c8.1,3.3,12.7-0.8,27,9.1c10.9,7.5,21,24.2,36.4,36.2
	c-18-5.9-32.7-16.6-45.6-18.1C14.4,92.3-1.3,105,0.9,105.2c8.8,0.6,11.8-4.7,28.5,0.3c12.7,3.8,27.5,16.5,45.8,23.2
	c-18.9,0-36.2-5.7-48.9-3.1c-17.1,3.4-28,20.3-25.9,19.8c8.5-2.1,9.8-8.1,27.2-8.5c13.2-0.3,31.2,7.2,50.7,7.9
	c-18,5.8-36.2,5.8-47.5,12.1c-15.2,8.5-20.4,28-18.5,26.8c7.4-4.6,6.8-10.7,23.2-16.5c12.5-4.4,31.9-2.8,50.6-8.2
	c-15.3,11.1-32.6,16.7-41.4,26.2c-11.8,12.8-10.7,32.9-9.3,31.2c5.6-6.7,3.1-12.3,17-22.8c10.5-8,29.5-12.5,45.6-23.4
	c-11.1,15.3-25.9,26-31.3,37.7c-7.3,15.8,0,34.6,0.8,32.6c3.3-8.1-0.8-12.7,9.1-27c7.5-10.9,24.2-21,36.2-36.4
	c-5.9,18-16.6,32.7-18.1,45.6c-2.1,17.3,10.7,32.9,10.8,30.8c0.6-8.8-4.7-11.8,0.3-28.5c3.8-12.7,16.5-27.5,23.2-45.8
	c0,18.9-5.7,36.2-3.1,48.9c3.4,17.1,20.3,28,19.8,25.9c-2.1-8.5-8.1-9.8-8.5-27.2c-0.3-13.2,7.2-31.2,7.9-50.7
	c5.8,18,5.8,36.2,12.1,47.5c8.5,15.2,28,20.4,26.8,18.5c-4.6-7.4-10.7-6.8-16.5-23.2c-4.4-12.5-2.8-31.9-8.2-50.6
	c11.1,15.3,16.7,32.6,26.2,41.4c12.8,11.8,32.9,10.7,31.2,9.3c-6.7-5.6-12.3-3.1-22.8-17c-8-10.5-12.5-29.5-23.4-45.6
	c15.3,11.1,26,25.9,37.7,31.3c15.8,7.3,34.6,0,32.6-0.8c-8.1-3.3-12.7,0.8-27-9.1c-10.9-7.5-21-24.2-36.4-36.2
	c18,5.9,32.7,16.6,45.6,18.1c17.3,2.1,32.9-10.7,30.8-10.8c-8.8-0.6-11.8,4.7-28.5-0.3c-12.7-3.8-27.5-16.5-45.8-23.2
	C198.1,125.7,215.4,131.3,228.1,128.8z"/>
</svg>
