<?xml version="1.0" encoding="utf-8"?>
<svg version="1.1" id="Bulb" xmlns="http://www.w3.org/2000/svg" xmlns:xlink="http://www.w3.org/1999/xlink" x="0px" y="0px"
	 viewBox="-123 215.8 283.5 368.5" style="enable-background:new -123 215.8 283.5 368.5;" xml:space="preserve">
<style type="text/css">
	.st0{fill:#285EB4;}
</style>
<g>
	<path class="st0" d="M-123,215.8v368.5h283.5V215.8H-123z M88.1,229.6c7,0,12.8,5.7,12.8,12.8c0,7-5.7,12.8-12.8,12.8
		c-7.1,0-12.8-5.7-12.8-12.8C75.3,235.3,81,229.6,88.1,229.6z M-109.4,228.7h85v56.7h-85V228.7z M18.7,554.7
		c-58.7,0-106.3-47.6-106.3-106.3S-40,342.1,18.7,342.1S125,389.7,125,448.4S77.4,554.7,18.7,554.7z M129.1,255.1
		c-7,0-12.8-5.7-12.8-12.8c0-7,5.7-12.8,12.8-12.8c7.1,0,12.8,5.7,12.8,12.8C141.9,249.4,136.1,255.1,129.1,255.1z"/>
	<circle class="st0" cx="18.7" cy="448.4" r="71.2"/>
</g>
<path class="st0" d="M-52.8,417.9c-8.9,12.5-7.5,38.1-0.1,56.4c4.9,12.2,12.6,24.1,21.5,33.7c12.5,13.4,30.3,16.6,44.5,15.2
	c5.7-0.5,11.3-0.8,16.5-0.5c5.1,0.4,9.7,1.3,11.5,4.3c0,0,0,0,0,0c1.8,2.9,0.1,7.9-4.8,12.5c-4.8,4.6-12.8,8.8-21.5,9.5
	c-25.5,2.5-52.7-10.1-71.2-33.9c-7.8-10.1-14.4-21.5-19.1-33.2c-10.3-25.9-10.2-57.8,3.7-77.3c5-7.2,12.6-12,19-13.9
	c6.4-1.9,11.6-0.9,13.3,2.1c0,0,0,0,0,0c1.8,3.1-2.4,6.3-4.7,10.9C-46.5,408.5-49.5,413.2-52.8,417.9z"/>
</svg>
