<?xml version="1.0" encoding="utf-8"?>
<svg version="1.1" id="Bulb" xmlns="http://www.w3.org/2000/svg" xmlns:xlink="http://www.w3.org/1999/xlink" x="0px" y="0px"
	 viewBox="-123 215.8 283.5 368.5" style="enable-background:new -123 215.8 283.5 368.5;" xml:space="preserve">
<style type="text/css">
	.st0{fill:#285EB4;}
</style>
<g>
	<path class="st0" d="M-123,215.8v368.5h283.5V215.8H-123z M88.1,229.6c7,0,12.8,5.7,12.8,12.8c0,7-5.7,12.8-12.8,12.8
		c-7.1,0-12.8-5.7-12.8-12.8C75.3,235.3,81,229.6,88.1,229.6z M-109.4,228.7h85v56.7h-85V228.7z M18.7,554.7
		c-58.7,0-106.3-47.6-106.3-106.3S-40,342.1,18.7,342.1S125,389.7,125,448.4S77.4,554.7,18.7,554.7z M129.1,255.1
		c-7,0-12.8-5.7-12.8-12.8c0-7,5.7-12.8,12.8-12.8c7.1,0,12.8,5.7,12.8,12.8C141.9,249.4,136.1,255.1,129.1,255.1z"/>
	<circle class="st0" cx="18.7" cy="448.4" r="71.2"/>
</g>
</svg>
