<?xml version="1.0" encoding="utf-8"?>
<svg version="1.1" id="Ebene_2" xmlns="http://www.w3.org/2000/svg" xmlns:xlink="http://www.w3.org/1999/xlink" x="0px" y="0px"
	 viewBox="0 0 401.3 233.9" style="enable-background:new 0 0 401.3 233.9;" xml:space="preserve">
<style type="text/css">
	.st0{fill:#285EB4;}
</style>
<g>
	<path class="st0" d="M186,18.8l-1.9,0.3c-1.5,0.2-2.8-0.8-3.1-2.3l-2-13.5c-0.2-1.5,0.8-2.8,2.3-3.1l1.9-0.3
		c1.5-0.2,2.8,0.8,3.1,2.3l2,13.5C188.5,17.2,187.5,18.6,186,18.8z"/>
</g>
<g>
	<path class="st0" d="M187.1,70.8l-2.7,0.4c-2.1,0.3-4.2-1.2-4.5-3.3L177,48c-0.3-2.1,1.2-4.2,3.3-4.5l2.7-0.4
		c2.1-0.3,4.2,1.2,4.5,3.3l2.9,19.8C190.8,68.4,189.3,70.5,187.1,70.8z"/>
</g>
<g>
	<path class="st0" d="M188.7,147.2l-4,0.6c-3.2,0.5-6.1-1.7-6.6-4.9l-4.3-29.1c-0.5-3.2,1.7-6.1,4.9-6.6l4-0.6
		c3.2-0.5,6.1,1.7,6.6,4.9l4.3,29.1C194.1,143.7,191.9,146.7,188.7,147.2z"/>
</g>
<g>
	<path class="st0" d="M150,26.2l-1.8,0.5c-1.4,0.4-2.9-0.5-3.3-1.9l-3.6-13.1c-0.4-1.4,0.5-2.9,1.9-3.3l1.8-0.5
		c1.4-0.4,2.9,0.5,3.3,1.9l3.6,13.1C152.3,24.3,151.4,25.8,150,26.2z"/>
</g>
<g>
	<path class="st0" d="M151.6,78l-2.7,0.7c-2.1,0.6-4.3-0.7-4.9-2.8l-5.3-19.3c-0.6-2.1,0.7-4.3,2.8-4.9l2.7-0.7
		c2.1-0.6,4.3,0.7,4.9,2.8l5.3,19.3C154.9,75.2,153.7,77.4,151.6,78z"/>
</g>
<g>
	<path class="st0" d="M154,154.1l-3.9,1.1c-3.1,0.8-6.3-1-7.1-4.1l-7.8-28.4c-0.8-3.1,1-6.3,4.1-7.1l3.9-1.1c3.1-0.8,6.3,1,7.1,4.1
		L158,147C158.9,150,157,153.3,154,154.1z"/>
</g>
<g>
	<path class="st0" d="M113.9,37.3l-1.7,0.7c-1.4,0.6-2.9-0.1-3.5-1.5L103.4,24c-0.6-1.4,0.1-2.9,1.5-3.5l1.7-0.7
		c1.4-0.6,2.9,0.1,3.5,1.5l5.2,12.6C115.9,35.2,115.2,36.8,113.9,37.3z"/>
</g>
<g>
	<path class="st0" d="M116,88.9l-2.5,1c-2,0.8-4.3-0.1-5.2-2.1l-7.6-18.5c-0.8-2,0.1-4.3,2.1-5.2l2.5-1c2-0.8,4.3,0.1,5.2,2.1
		l7.6,18.5C119,85.7,118,88.1,116,88.9z"/>
</g>
<g>
	<path class="st0" d="M119.1,164.7l-3.7,1.5c-3,1.2-6.4-0.2-7.6-3.2l-11.2-27.2c-1.2-3,0.2-6.4,3.2-7.6l3.7-1.5
		c3-1.2,6.4,0.2,7.6,3.2l11.2,27.2C123.5,160.1,122,163.5,119.1,164.7z"/>
</g>
<g>
	<path class="st0" d="M81.7,53.3l-1.6,0.9c-1.3,0.7-2.9,0.3-3.7-1l-6.7-11.9c-0.7-1.3-0.3-2.9,1-3.7l1.6-0.9c1.3-0.7,2.9-0.3,3.7,1
		l6.7,11.9C83.4,51,83,52.6,81.7,53.3z"/>
</g>
<g>
	<path class="st0" d="M80.3,107.6l-2.4,1.4c-1.9,1.1-4.3,0.4-5.4-1.5L62.6,90c-1.1-1.9-0.4-4.3,1.5-5.4l2.4-1.4
		c1.9-1.1,4.3-0.4,5.4,1.5l9.8,17.4C82.8,104.1,82.2,106.6,80.3,107.6z"/>
</g>
<g>
	<path class="st0" d="M84.1,183l-3.5,2c-2.8,1.6-6.3,0.6-7.9-2.2l-14.5-25.7c-1.6-2.8-0.6-6.3,2.2-7.9l3.5-2
		c2.8-1.6,6.3-0.6,7.9,2.2l14.5,25.7C87.8,177.9,86.8,181.5,84.1,183z"/>
</g>
<g>
	<path class="st0" d="M217.4,18.8l1.9,0.3c1.5,0.2,2.8-0.8,3.1-2.3l2-13.5c0.2-1.5-0.8-2.8-2.3-3.1L220.1,0
		c-1.5-0.2-2.8,0.8-3.1,2.3l-2,13.5C214.9,17.2,215.9,18.6,217.4,18.8z"/>
</g>
<g>
	<path class="st0" d="M216.3,70.8l2.7,0.4c2.1,0.3,4.2-1.2,4.5-3.3l2.9-19.8c0.3-2.1-1.2-4.2-3.3-4.5l-2.7-0.4
		c-2.1-0.3-4.2,1.2-4.5,3.3l-2.9,19.8C212.6,68.4,214.1,70.5,216.3,70.8z"/>
</g>
<g>
	<path class="st0" d="M214.7,147.2l4,0.6c3.2,0.5,6.1-1.7,6.6-4.9l4.3-29.1c0.5-3.2-1.7-6.1-4.9-6.6l-4-0.6
		c-3.2-0.5-6.1,1.7-6.6,4.9l-4.3,29.1C209.3,143.7,211.5,146.7,214.7,147.2z"/>
</g>
<g>
	<path class="st0" d="M252.2,26.2l1.8,0.5c1.4,0.4,2.9-0.5,3.3-1.9l3.6-13.1c0.4-1.4-0.5-2.9-1.9-3.3l-1.8-0.5
		c-1.4-0.4-2.9,0.5-3.3,1.9l-3.6,13.1C249.9,24.3,250.7,25.8,252.2,26.2z"/>
</g>
<g>
	<path class="st0" d="M250.5,78l2.7,0.7c2.1,0.6,4.3-0.7,4.9-2.8l5.3-19.3c0.6-2.1-0.7-4.3-2.8-4.9L258,51c-2.1-0.6-4.3,0.7-4.9,2.8
		l-5.3,19.3C247.2,75.2,248.4,77.4,250.5,78z"/>
</g>
<g>
	<path class="st0" d="M248.2,154.1l3.9,1.1c3.1,0.8,6.3-1,7.1-4.1l7.8-28.4c0.8-3.1-1-6.3-4.1-7.1l-3.9-1.1c-3.1-0.8-6.3,1-7.1,4.1
		l-7.8,28.4C243.3,150,245.1,153.3,248.2,154.1z"/>
</g>
<g>
	<path class="st0" d="M287,37.3l1.7,0.7c1.4,0.6,2.9-0.1,3.5-1.5l5.2-12.6c0.6-1.4-0.1-2.9-1.5-3.5l-1.7-0.7
		c-1.4-0.6-2.9,0.1-3.5,1.5l-5.2,12.6C285,35.2,285.6,36.8,287,37.3z"/>
</g>
<g>
	<path class="st0" d="M284.9,88.9l2.5,1c2,0.8,4.3-0.1,5.2-2.1l7.6-18.5c0.8-2-0.1-4.3-2.1-5.2l-2.5-1c-2-0.8-4.3,0.1-5.2,2.1
		l-7.6,18.5C281.9,85.7,282.9,88.1,284.9,88.9z"/>
</g>
<g>
	<path class="st0" d="M281.8,164.7l3.7,1.5c3,1.2,6.4-0.2,7.6-3.2l11.2-27.2c1.2-3-0.2-6.4-3.2-7.6l-3.7-1.5c-3-1.2-6.4,0.2-7.6,3.2
		l-11.2,27.2C277.4,160.1,278.8,163.5,281.8,164.7z"/>
</g>
<g>
	<path class="st0" d="M321.9,56.3l1.6,0.9c1.3,0.7,2.9,0.3,3.7-1l6.7-11.9c0.7-1.3,0.3-2.9-1-3.7l-1.6-0.9c-1.3-0.7-2.9-0.3-3.7,1
		l-6.7,11.9C320.2,54,320.6,55.6,321.9,56.3z"/>
</g>
<g>
	<path class="st0" d="M319.3,107.6l2.4,1.4c1.9,1.1,4.3,0.4,5.4-1.5L337,90c1.1-1.9,0.4-4.3-1.5-5.4l-2.4-1.4
		c-1.9-1.1-4.3-0.4-5.4,1.5l-9.8,17.4C316.8,104.1,317.5,106.6,319.3,107.6z"/>
</g>
<g>
	<path class="st0" d="M315.6,183l3.5,2c2.8,1.6,6.3,0.6,7.9-2.2l14.5-25.7c1.6-2.8,0.6-6.3-2.2-7.9l-3.5-2c-2.8-1.6-6.3-0.6-7.9,2.2
		l-14.5,25.7C311.8,177.9,312.8,181.5,315.6,183z"/>
</g>
<g>
	<path class="st0" d="M355.3,128.8l2.3,1.6c1.8,1.2,4.3,0.8,5.5-1l11.5-16.4c1.2-1.8,0.8-4.3-1-5.5l-2.3-1.6c-1.8-1.2-4.3-0.8-5.5,1
		l-11.5,16.4C353.1,125.1,353.5,127.6,355.3,128.8z"/>
</g>
<g>
	<path class="st0" d="M45.9,129.1l-2.3,1.5c-1.8,1.2-4.3,0.7-5.5-1.2l-10.9-16.8c-1.2-1.8-0.7-4.3,1.2-5.5l2.3-1.5
		c1.8-1.2,4.3-0.7,5.5,1.2l10.9,16.8C48.3,125.5,47.8,127.9,45.9,129.1z"/>
</g>
<g>
	<path class="st0" d="M352.1,71.2l1.5,1.1c1.2,0.9,2.9,0.6,3.8-0.6l8-11c0.9-1.2,0.6-2.9-0.6-3.8l-1.5-1.1c-1.2-0.9-2.9-0.6-3.8,0.6
		l-8,11C350.7,68.6,350.9,70.3,352.1,71.2z"/>
</g>
<g>
	<path class="st0" d="M386,95.8l1.4,1.3c1.1,1,2.8,1,3.8-0.1l9.4-9.9c1-1.1,1-2.8-0.1-3.8l-1.4-1.3c-1.1-1-2.8-1-3.8,0.1l-9.4,9.9
		C384.9,93.1,384.9,94.8,386,95.8z"/>
</g>
<g>
	<path class="st0" d="M49.2,67.6l-1.5,1.2c-1.1,0.9-2.8,0.8-3.8-0.4l-8.6-10.6c-0.9-1.1-0.8-2.8,0.4-3.8l1.5-1.2
		c1.1-0.9,2.8-0.8,3.8,0.4l8.6,10.6C50.5,64.9,50.3,66.6,49.2,67.6z"/>
</g>
<g>
	<path class="st0" d="M15.4,91.1l-1.3,1.3c-1.1,1-2.8,1-3.8,0l-9.5-9.7c-1-1.1-1-2.8,0-3.8l1.3-1.3c1.1-1,2.8-1,3.8,0l9.5,9.7
		C16.5,88.4,16.5,90.1,15.4,91.1z"/>
</g>
<path class="st0" d="M337.5,213.2c-3.5-3.2-7.2-6.2-10.8-9.1c-1.8,1.7-4.6,2.2-6.9,0.9l-3.5-2c-2.8-1.6-3.7-5.2-2.1-7.9l0,0
	c-6.6-4.4-13.3-8.4-20.2-12c-1.3,2.8-4.6,4.2-7.5,2.9l-3.7-1.6c-2.9-1.2-4.3-4.7-3.1-7.6l0.2-0.4c-6.3-2.7-12.7-5-19.2-7l-0.4,1.3
	c-0.9,3.1-4.1,4.9-7.2,4l-3.9-1.1c-3.1-0.9-4.9-4.1-4-7.2l0.3-1.1c-6.3-1.4-12.7-2.6-19.1-3.4l0,0.2c-0.5,3.2-3.5,5.3-6.6,4.8
	l-4-0.6c-2.9-0.5-5-3-4.9-5.9c-5.3-0.3-10.7-0.4-16-0.3c0.1,2.9-2,5.6-5,6l-4,0.6c-3.2,0.4-6.1-1.8-6.6-4.9l-0.1-0.7
	c-6.9,0.7-13.7,1.7-20.5,3l0.4,1.6c0.8,3.1-1,6.3-4.1,7.1l-3.9,1c-3.1,0.8-6.3-1-7.1-4.1l-0.5-2c-6.9,1.9-13.8,4.3-20.6,6.9l0.3,0.9
	c1.2,3-0.3,6.4-3.2,7.6l-3.8,1.5c-3,1.2-6.4-0.3-7.6-3.2l-0.2-0.4c-7.3,3.6-14.5,7.6-21.5,12.2l0,0c1.5,2.8,0.5,6.3-2.3,7.9l-3.5,2
	c-2.3,1.3-5.1,0.8-6.9-1c-4.6,3.5-9.1,7.2-13.4,11.1c-4.3,3.9-5.1,9.8-2,12.9c1.9,1.9,3.8,3.8,5.7,5.7c3.1,3.1,8.7,2.6,12.4-0.8
	c69.3-62.7,175.2-62.7,244.5,0c3.8,3.4,9.3,3.8,12.4,0.8c1.9-1.9,3.8-3.8,5.7-5.7C342.7,223.1,341.8,217.1,337.5,213.2z"/>
</svg>
