<?xml version="1.0" encoding="utf-8"?>
<svg version="1.1" id="Ebene_2" xmlns="http://www.w3.org/2000/svg" xmlns:xlink="http://www.w3.org/1999/xlink" x="0px" y="0px"
	 viewBox="0 0 401.3 233.9" style="enable-background:new 0 0 401.3 233.9;" xml:space="preserve">
<style type="text/css">
	.st0{fill:#285EB4;}
</style>
<path class="st0" d="M337.5,213.2c-3.5-3.2-7.2-6.2-10.8-9.1c-1.8,1.7-4.6,2.2-6.9,0.9l-3.5-2c-2.8-1.6-3.7-5.2-2.1-7.9l0,0
	c-6.6-4.4-13.3-8.4-20.2-12c-1.3,2.8-4.6,4.2-7.5,2.9l-3.7-1.6c-2.9-1.2-4.3-4.7-3.1-7.6l0.2-0.4c-6.3-2.7-12.7-5-19.2-7l-0.4,1.3
	c-0.9,3.1-4.1,4.9-7.2,4l-3.9-1.1c-3.1-0.9-4.9-4.1-4-7.2l0.3-1.1c-6.3-1.4-12.7-2.6-19.1-3.4l0,0.2c-0.5,3.2-3.5,5.3-6.6,4.8
	l-4-0.6c-2.9-0.5-5-3-4.9-5.9c-5.3-0.3-10.7-0.4-16-0.3c0.1,2.9-2,5.6-5,6l-4,0.6c-3.2,0.4-6.1-1.8-6.6-4.9l-0.1-0.7
	c-6.9,0.7-13.7,1.7-20.5,3l0.4,1.6c0.8,3.1-1,6.3-4.1,7.1l-3.9,1c-3.1,0.8-6.3-1-7.1-4.1l-0.5-2c-6.9,1.9-13.8,4.3-20.6,6.9l0.3,0.9
	c1.2,3-0.3,6.4-3.2,7.6l-3.8,1.5c-3,1.2-6.4-0.3-7.6-3.2l-0.2-0.4c-7.3,3.6-14.5,7.6-21.5,12.2l0,0c1.5,2.8,0.5,6.3-2.3,7.9l-3.5,2
	c-2.3,1.3-5.1,0.8-6.9-1c-4.6,3.5-9.1,7.2-13.4,11.1c-4.3,3.9-5.1,9.8-2,12.9c1.9,1.9,3.8,3.8,5.7,5.7c3.1,3.1,8.7,2.6,12.4-0.8
	c69.3-62.7,175.2-62.7,244.5,0c3.8,3.4,9.3,3.8,12.4,0.8c1.9-1.9,3.8-3.8,5.7-5.7C342.7,223.1,341.8,217.1,337.5,213.2z"/>
</svg>
